<?xml version="1.0" encoding="utf-8"?>
<!-- Generator: Adobe Illustrator 23.0.2, SVG Export Plug-In . SVG Version: 6.00 Build 0)  -->
<svg version="1.1" id="Capa_1" xmlns="http://www.w3.org/2000/svg" xmlns:xlink="http://www.w3.org/1999/xlink" x="0px" y="0px"
	 viewBox="0 0 612 463.75" style="enable-background:new 0 0 612 463.75;" xml:space="preserve">
<style type="text/css">
	.st0{fill:none;stroke:#13385D;stroke-miterlimit:10;}
	.st1{fill:#13385D;}
	.st2{fill:#FFFFFF;stroke:#E7E6E6;stroke-miterlimit:10;}
	.st3{fill:#FFFFFF;}
	.st4{fill:none;stroke:#8A8D8E;stroke-linecap:round;stroke-linejoin:round;stroke-miterlimit:10;}
	.st5{fill:#36373D;stroke:#36373D;stroke-miterlimit:10;}
	.st6{fill:none;stroke:#36373D;stroke-miterlimit:10;}
	.st7{fill:none;stroke:#36373D;stroke-linecap:round;stroke-linejoin:round;stroke-miterlimit:10;}
	.st8{fill:#313143;}
	.st9{fill:none;stroke:#313143;stroke-width:6;stroke-miterlimit:10;}
	.st10{fill:none;stroke:#313143;stroke-width:6;stroke-linecap:round;stroke-linejoin:round;stroke-miterlimit:10;}
	.st11{fill:none;stroke:#E0E0E1;stroke-width:2;stroke-miterlimit:10;}
	.st12{fill:#E7E7E9;}
	.st13{fill:none;stroke:#E0E0E1;stroke-width:2;stroke-linecap:round;stroke-linejoin:round;stroke-miterlimit:10;}
	.st14{fill:none;stroke:#36373D;stroke-width:2;stroke-miterlimit:10;}
	.st15{fill:#36373D;}
	.st16{fill:none;stroke:#36373D;stroke-width:2;stroke-linecap:round;stroke-linejoin:round;stroke-miterlimit:10;}
	.st17{fill:none;stroke:#36373D;stroke-width:3;stroke-linecap:round;stroke-linejoin:round;stroke-miterlimit:10;}
</style>
<g id="flecha_x5F_izquierda">
	<circle class="st0" cx="31.45" cy="33.66" r="19.88"/>
	<path class="st1" d="M39.02,32.81H27.1l3.01-3.02l-1.19-1.19l-5.05,5.05l5.05,5.05l1.19-1.19L27.1,34.5h11.92V32.81z"/>
</g>
<g id="flecha_x5F_derecha">
	<circle class="st0" cx="152.59" cy="33.66" r="19.88"/>
	<path class="st1" d="M145.02,34.5h11.92l-3.01,3.02l1.19,1.19l5.05-5.05l-5.05-5.05l-1.19,1.19l3.01,3.02h-11.92V34.5z"/>
</g>
<g id="mas">
	<path class="st2" d="M276.96,23.46v7.16h6.96v6.12h-6.96v7.12h-6.48v-7.12h-6.96v-6.12h6.96v-7.16H276.96z"/>
</g>
<g id="menos">
	<path class="st2" d="M507.2,30.82h17.6v5.68h-17.6V30.82z"/>
</g>
<g id="logout">
	<polygon class="st3" points="37.81,132.28 22.48,132.28 22.48,126.03 24.06,126.03 24.06,130.7 36.23,130.7 36.23,110.6 
		24.06,110.6 24.06,116.15 22.48,116.15 22.48,109.01 37.81,109.01 	"/>
	<polygon class="st3" points="33.32,119.85 26.87,119.85 26.87,116.69 19.57,120.91 26.87,125.13 26.87,121.97 33.32,121.97 	"/>
</g>
<g id="regulatorio_x5F_grey">
	<circle class="st4" cx="23.33" cy="176.1" r="3.76"/>
	<circle class="st4" cx="23.33" cy="188.12" r="3.76"/>
	<rect x="32.4" y="178.21" class="st4" width="7.3" height="7.3"/>
	<line class="st4" x1="23.26" y1="181.16" x2="23.26" y2="183.19"/>
	<line class="st4" x1="23.38" y1="182.19" x2="31.06" y2="182.19"/>
</g>
<g id="institucional_x5F_grey">
	<circle class="st4" cx="104.11" cy="173.28" r="2.32"/>
	<circle class="st4" cx="110.44" cy="182.04" r="2.32"/>
	<circle class="st4" cx="120.45" cy="182.04" r="2.32"/>
	<circle class="st4" cx="104.11" cy="190.95" r="2.32"/>
	<polyline class="st4" points="104.11,175.6 104.11,178.1 110.72,178.1 110.72,179.72 	"/>
	<polyline class="st4" points="110.72,184.43 110.72,186.93 104.11,186.93 104.11,188.55 	"/>
	<line class="st4" x1="112.76" y1="182.04" x2="118.14" y2="182.04"/>
</g>
<g id="individual_x5F_active">
	<polyline class="st0" points="187.64,231.44 187.64,248.31 173.93,248.31 173.93,241.07 	"/>
	<polyline class="st0" points="184.19,231.44 170.53,231.44 170.53,248.21 	"/>
	<line class="st0" x1="177.38" y1="231.44" x2="177.38" y2="238.58"/>
	<polyline class="st0" points="184.48,238.2 180.84,238.2 180.84,234.8 187.64,234.8 	"/>
	<line class="st0" x1="187.64" y1="244.86" x2="177.76" y2="244.86"/>
</g>
<g id="individual_x5F_grey">
	<polyline class="st4" points="187.64,173.68 187.64,190.55 173.93,190.55 173.93,183.31 	"/>
	<polyline class="st4" points="184.19,173.68 170.53,173.68 170.53,190.45 	"/>
	<line class="st4" x1="177.38" y1="173.68" x2="177.38" y2="180.82"/>
	<polyline class="st4" points="184.48,180.44 180.84,180.44 180.84,177.04 187.64,177.04 	"/>
	<line class="st4" x1="187.64" y1="187.1" x2="177.76" y2="187.1"/>
</g>
<g id="institucional_x5F_active">
	<circle class="st0" cx="104.11" cy="231.04" r="2.32"/>
	<circle class="st0" cx="110.44" cy="239.8" r="2.32"/>
	<circle class="st0" cx="120.45" cy="239.8" r="2.32"/>
	<circle class="st0" cx="104.11" cy="248.71" r="2.32"/>
	<polyline class="st0" points="104.11,233.36 104.11,235.86 110.72,235.86 110.72,237.48 	"/>
	<polyline class="st0" points="110.72,242.19 110.72,244.69 104.11,244.69 104.11,246.31 	"/>
	<line class="st0" x1="112.76" y1="239.8" x2="118.14" y2="239.8"/>
</g>
<g id="regulatorio_x5F_active">
	<circle class="st0" cx="23.33" cy="233.86" r="3.76"/>
	<circle class="st0" cx="23.33" cy="245.88" r="3.76"/>
	<rect x="32.4" y="235.97" class="st0" width="7.3" height="7.3"/>
	<line class="st0" x1="23.26" y1="238.92" x2="23.26" y2="240.95"/>
	<line class="st0" x1="23.38" y1="239.95" x2="31.06" y2="239.95"/>
</g>
<g id="base_x5F_de_x5F_datos">
	<rect x="19.57" y="298.12" class="st5" width="11.51" height="5"/>
	<rect x="31.59" y="298.12" class="st6" width="11.51" height="5"/>
	<rect x="19.57" y="303.69" class="st6" width="11.51" height="5"/>
	<rect x="31.59" y="303.69" class="st6" width="11.51" height="5"/>
	<rect x="19.57" y="309.27" class="st6" width="11.51" height="5"/>
	<rect x="31.59" y="309.27" class="st6" width="11.51" height="5"/>
</g>
<g id="organigrama">
	<path class="st7" d="M116.2,300.69h-7.79c-0.22,0-0.41-0.18-0.41-0.41v-3.68c0-0.22,0.18-0.41,0.41-0.41h7.79
		c0.22,0,0.41,0.18,0.41,0.41v3.68C116.6,300.51,116.42,300.69,116.2,300.69z"/>
	<path class="st7" d="M109.99,311.19h-7.79c-0.22,0-0.41-0.18-0.41-0.41v-3.68c0-0.22,0.18-0.41,0.41-0.41h7.79
		c0.22,0,0.41,0.18,0.41,0.41v3.68C110.4,311,110.22,311.19,109.99,311.19z"/>
	<path class="st7" d="M122.77,311.19h-7.79c-0.22,0-0.41-0.18-0.41-0.41v-3.68c0-0.22,0.18-0.41,0.41-0.41h7.79
		c0.22,0,0.41,0.18,0.41,0.41v3.68C123.18,311,122.99,311.19,122.77,311.19z"/>
	<g>
		<polyline class="st7" points="112.3,302.19 112.3,303.69 106.1,303.69 106.1,305.19 		"/>
		<polyline class="st7" points="112.3,303.69 118.87,303.69 118.87,305.19 		"/>
	</g>
</g>
<g id="mapa_x5F_icon">
	<g>
		<polygon class="st7" points="186.48,303.98 173.86,309.43 180.21,310.26 181.04,316.6 		"/>
		<circle class="st7" cx="181.25" cy="309.49" r="10.72"/>
	</g>
</g>
<g id="logo_x5F_blanco">
	<path class="st3" d="M37.75,404.29c-8.16,0-14.77,6.61-14.77,14.77c0,8.16,6.61,14.77,14.77,14.77c3.01,0,5.8-0.9,8.13-2.44
		c-0.1,0.01-0.19,0.03-0.29,0.03c-1.17,0-2.11-0.94-2.11-2.11c0-1.17,0.94-2.11,2.11-2.11c1.17,0,2.11,0.94,2.11,2.11
		c0,0.29-0.06,0.56-0.16,0.81c3.06-2.71,4.99-6.66,4.99-11.06C52.52,410.9,45.9,404.29,37.75,404.29z M34.73,423.58
		c-3.83,0-6.93-3.1-6.93-6.93s3.1-6.93,6.93-6.93c3.83,0,6.93,3.1,6.93,6.93S38.56,423.58,34.73,423.58z"/>
	<path class="st3" d="M66.66,443l-8.38-8.38c3.42-4.37,5.47-9.86,5.47-15.83c0-14.18-11.54-25.72-25.72-25.72
		c-14.18,0-25.72,11.54-25.72,25.72s11.54,25.72,25.72,25.72c7.14,0,13.6-2.92,18.27-7.63l8.25,8.25c0.29,0.29,0.68,0.44,1.06,0.44
		s0.77-0.15,1.06-0.44C67.24,444.54,67.24,443.59,66.66,443z M38.02,441.51c-12.53,0-22.72-10.19-22.72-22.72
		c0-12.53,10.19-22.72,22.72-22.72s22.72,10.19,22.72,22.72C60.74,431.31,50.55,441.51,38.02,441.51z"/>
</g>
<g>
	<polygon class="st3" points="403.76,37.22 402.77,38.21 395.56,31 388.36,38.21 387.37,37.22 395.56,29.02 	"/>
	<path class="st3" d="M395.56,28.53l8.69,8.69l-1.48,1.48l-7.21-7.2l-7.21,7.21l-1.48-1.48L395.56,28.53z M403.26,37.22l-7.7-7.7
		l-7.7,7.7l0.49,0.49l7.21-7.21l7.21,7.2L403.26,37.22z"/>
</g>
<g id="logo_x5F_color">
	<path class="st8" d="M466.09,201.84c-21.24,0-38.45,17.21-38.45,38.45s17.21,38.45,38.45,38.45c7.82,0,15.1-2.34,21.17-6.35
		c-0.25,0.04-0.5,0.08-0.77,0.08c-3.03,0-5.49-2.46-5.49-5.49c0-3.03,2.46-5.49,5.49-5.49c3.03,0,5.49,2.46,5.49,5.49
		c0,0.75-0.15,1.46-0.42,2.11c7.96-7.04,12.98-17.33,12.98-28.79C504.54,219.06,487.32,201.84,466.09,201.84z M458.24,252.06
		c-9.97,0-18.05-8.08-18.05-18.05c0-9.97,8.08-18.05,18.05-18.05c9.97,0,18.05,8.08,18.05,18.05
		C476.29,243.98,468.21,252.06,458.24,252.06z"/>
	<circle class="st9" cx="466.8" cy="239.58" r="63.05"/>
	<line class="st10" x1="514.27" y1="281.06" x2="538.57" y2="305.37"/>
</g>
<g id="ojo_x5F_grey">
	<circle class="st11" cx="27.8" cy="367.6" r="4.63"/>
	<circle class="st12" cx="27.8" cy="367.6" r="2.13"/>
	<path class="st13" d="M40.35,367.57l-6.15-3.25c-2-1.06-4.19-1.59-6.39-1.59v0c0,0,0,0-0.01,0s0,0-0.01,0v0
		c-2.2,0-4.39,0.53-6.39,1.59l-6.15,3.25l-0.05,0.03l0.05,0.03l6.15,3.25c2,1.06,4.19,1.59,6.39,1.59v0c0,0,0,0,0.01,0s0,0,0.01,0v0
		c2.2,0,4.39-0.53,6.39-1.59l6.15-3.25l0.05-0.03L40.35,367.57z"/>
</g>
<g id="ojo_x5F_active">
	<circle class="st14" cx="86.59" cy="362.97" r="4.63"/>
	<circle class="st15" cx="86.59" cy="362.97" r="2.13"/>
	<path class="st16" d="M99.14,362.94l-6.15-3.25c-2-1.06-4.19-1.59-6.39-1.59v0c0,0,0,0-0.01,0c0,0,0,0-0.01,0v0
		c-2.2,0-4.39,0.53-6.39,1.59l-6.15,3.25l-0.05,0.03l0.05,0.03l6.15,3.25c2,1.06,4.19,1.59,6.39,1.59v0c0,0,0,0,0.01,0
		c0,0,0,0,0.01,0v0c2.2,0,4.39-0.53,6.39-1.59l6.15-3.25l0.05-0.03L99.14,362.94z"/>
</g>
<path id="LAPIZ" class="st15" d="M90.08,395.61c0-0.93-0.36-1.81-1.02-2.47c-0.66-0.66-1.54-1.02-2.47-1.02c0,0,0,0,0,0
	c-0.93,0-1.81,0.36-2.47,1.02s-1.02,1.54-1.02,2.47v0.4c0,0.16,0.05,0.31,0.11,0.44c-0.07,0.13-0.11,0.28-0.11,0.44l0,12.27
	c0,0.01,0,0.01,0,0.02c0,0.12,0.03,0.23,0.07,0.34c0.01,0.03,0.03,0.05,0.04,0.08c0.02,0.04,0.03,0.08,0.06,0.12l2.45,3.63
	c0.18,0.27,0.49,0.44,0.82,0.44c0,0,0.01,0,0.01,0c0.33,0,0.63-0.16,0.82-0.43l2.54-3.63c0.03-0.04,0.05-0.1,0.07-0.14
	c0.01-0.02,0.03-0.04,0.04-0.07c0.04-0.11,0.06-0.22,0.07-0.34c0-0.01,0-0.02,0-0.02l0-12.27c0-0.16-0.05-0.3-0.11-0.44
	c0.07-0.14,0.11-0.28,0.11-0.44V395.61z M86.58,408.16l-1.49,0l0-10.27h2.99l0,10.27L86.58,408.16z M85.53,394.55
	c0.28-0.28,0.66-0.44,1.06-0.44h0c0.4,0,0.77,0.16,1.06,0.44c0.13,0.13,0.24,0.29,0.31,0.46l-2.74,0
	C85.29,394.84,85.4,394.68,85.53,394.55z M86.56,411.02l-0.58-0.86l0.59,0l0.6,0L86.56,411.02z"/>
<g id="icono_x5F_subir_x5F_small">
	<g>
		<g>
			<polyline class="st16" points="158.19,410.61 158.19,393.54 153.2,398.53 			"/>
			<line class="st16" x1="158.19" y1="393.54" x2="163.29" y2="398.64"/>
		</g>
		<polyline class="st16" points="148.47,405.09 148.47,412.36 167.87,412.36 167.87,405.09 		"/>
	</g>
</g>
<g id="icono_x5F_subir">
	<g>
		<polyline class="st16" points="220.59,410.21 220.59,385.11 213.25,392.45 		"/>
		<line class="st16" x1="220.59" y1="385.11" x2="228.09" y2="392.61"/>
	</g>
	<polyline class="st16" points="206.3,402.1 206.3,412.79 234.82,412.79 234.82,402.1 	"/>
</g>
<g id="candado">
	<g>
		<path class="st15" d="M388.02,397.96c0-1.11-1.03-2.01-2.29-2.01c-1.26,0-2.29,0.9-2.29,2.01c0,0.79,0.51,1.47,1.26,1.8
			c0,0.03-0.01,0.05-0.01,0.08v4.22c0,0.5,0.46,0.91,1.04,0.91c0.57,0,1.04-0.41,1.04-0.91v-4.22c0-0.03-0.01-0.05-0.01-0.08
			C387.51,399.43,388.02,398.75,388.02,397.96z"/>
		<circle class="st16" cx="385.73" cy="400.78" r="8.85"/>
		<path class="st16" d="M381.62,393.01v-4.4c0-1.61,1.84-2.92,4.12-2.92l0,0c2.27,0,4.12,1.31,4.12,2.92V393"/>
	</g>
</g>
<g id="tache">
	<g>
		<line class="st16" x1="293.3" y1="388.4" x2="311.82" y2="406.92"/>
		<line class="st16" x1="311.82" y1="388.4" x2="293.3" y2="406.92"/>
	</g>
</g>
<g id="flecha_x5F_abajo">
	<line class="st17" x1="469.26" y1="405.42" x2="482.82" y2="391.86"/>
	<line class="st17" x1="469.58" y1="405.42" x2="456.02" y2="391.86"/>
</g>
<g id="flecha_x5F_arriba">
	<line class="st17" x1="538.73" y1="391.86" x2="525.17" y2="405.42"/>
	<line class="st17" x1="538.41" y1="391.86" x2="551.97" y2="405.42"/>
</g>
</svg>
