<svg id="Capa_1" data-name="Capa 1" xmlns="http://www.w3.org/2000/svg" viewBox="0 0 68.03 70.34"><defs><style>.cls-1{opacity:0.2;}.cls-2{fill:#0e2030;}.cls-3{fill:#fff;}</style></defs><g class="cls-1"><rect class="cls-2" x="42.28" y="8.59" width="9.54" height="53.48"/></g><rect class="cls-3" x="16.69" y="9.22" width="12" height="52.85"/><path class="cls-2" d="M29.19,62.57h-13V8.72h13Zm-12-1h11V9.72h-11Z"/><rect class="cls-3" x="28.69" y="13.8" width="10.75" height="48.27"/><path class="cls-2" d="M39.94,62.57H28.19V13.3H39.94Zm-10.75-1h9.75V14.3H29.19Z"/><rect class="cls-3" x="39.44" y="9.08" width="9.54" height="52.99"/><path class="cls-2" d="M49.49,62.57H38.94v-54H49.49Zm-9.55-1h8.55v-52H39.94Z"/><rect class="cls-2" x="2.33" y="62.08" width="63.47" height="1"/><rect class="cls-2" x="16.69" y="18.52" width="6.42" height="1"/><rect class="cls-2" x="20.17" y="27.02" width="5.05" height="12.42"/><rect class="cls-2" x="19.9" y="50.73" width="5.68" height="1"/><rect class="cls-2" x="19.9" y="54.83" width="5.68" height="1"/><rect class="cls-2" x="19.9" y="58.94" width="5.68" height="1"/><rect class="cls-2" x="31.54" y="40.7" width="5.05" height="5.05"/><rect class="cls-2" x="31.28" y="50.73" width="5.68" height="1"/><rect class="cls-2" x="31.28" y="23.8" width="5.68" height="1"/><rect class="cls-2" x="31.28" y="54.83" width="5.68" height="1"/><rect class="cls-2" x="31.28" y="58.94" width="5.68" height="1"/><rect class="cls-2" x="41.37" y="32.01" width="5.68" height="1"/><rect class="cls-2" x="41.37" y="58.94" width="5.68" height="1"/><rect class="cls-2" x="41.37" y="27.91" width="5.68" height="1"/><rect class="cls-2" x="41.37" y="23.8" width="5.68" height="1"/></svg>