<?xml version="1.0" encoding="utf-8"?>
<!-- Generator: Adobe Illustrator 23.0.4, SVG Export Plug-In . SVG Version: 6.00 Build 0)  -->
<svg version="1.1" id="Capa_1" xmlns="http://www.w3.org/2000/svg" xmlns:xlink="http://www.w3.org/1999/xlink" x="0px" y="0px"
	 viewBox="0 0 30.1 36.4" style="enable-background:new 0 0 30.1 36.4;" xml:space="preserve">
<style type="text/css">
	.st0{fill:#0A1F30;}
	.st1{fill:none;stroke:#0A1F30;stroke-width:6;stroke-miterlimit:10;}
	.st2{fill:none;stroke:#0A1F30;stroke-width:6;stroke-linecap:round;stroke-miterlimit:10;}
	.st3{fill:#FFFFFF;}
	.st4{fill:none;stroke:#FFFFFF;stroke-width:3;stroke-miterlimit:10;}
	.st5{fill:none;stroke:#FFFFFF;stroke-width:3;stroke-linecap:round;stroke-miterlimit:10;}
	.st6{fill:none;stroke:#0A1F30;stroke-width:3;stroke-miterlimit:10;}
	.st7{fill:none;stroke:#0A1F30;stroke-width:3;stroke-linecap:round;stroke-miterlimit:10;}
	.st8{fill:#36363D;}
	.st9{fill:none;stroke:#36363D;stroke-width:2;stroke-linecap:round;stroke-linejoin:round;stroke-miterlimit:10;}
</style>
<g>
	<path class="st8" d="M22.7,22.1c-0.4-0.5-1.1-0.5-1.6-0.1l-4.9,4.5V4.3c0-0.6-0.5-1.1-1.1-1.1s-1.1,0.5-1.1,1.1v22.2l-4.9-4.5
		c-0.5-0.4-1.2-0.4-1.6,0.1c-0.4,0.5-0.4,1.2,0.1,1.6l6.8,6.2c0,0,0,0,0,0c0.1,0.1,0.2,0.1,0.3,0.2c0,0,0,0,0,0
		c0.1,0.1,0.3,0.1,0.4,0.1s0.3,0,0.4-0.1c0,0,0,0,0,0c0.1,0,0.2-0.1,0.3-0.2c0,0,0,0,0,0l6.7-6.2C23,23.3,23.1,22.6,22.7,22.1z"/>
	<line class="st9" x1="3.6" y1="33.2" x2="26.6" y2="33.2"/>
</g>
</svg>
