<?xml version="1.0" encoding="utf-8"?>
<!-- Generator: Adobe Illustrator 23.0.4, SVG Export Plug-In . SVG Version: 6.00 Build 0)  -->
<svg version="1.1" id="Capa_1" xmlns="http://www.w3.org/2000/svg" xmlns:xlink="http://www.w3.org/1999/xlink" x="0px" y="0px"
	 viewBox="0 0 166.1 50.4" style="enable-background:new 0 0 166.1 50.4;" xml:space="preserve">
<style type="text/css">
	.st0{fill:#0A1F30;}
	.st1{fill:none;stroke:#0A1F30;stroke-width:6;stroke-miterlimit:10;}
	.st2{fill:none;stroke:#0A1F30;stroke-width:6;stroke-linecap:round;stroke-miterlimit:10;}
	.st3{fill:#FFFFFF;}
	.st4{fill:none;stroke:#FFFFFF;stroke-width:3;stroke-miterlimit:10;}
	.st5{fill:none;stroke:#FFFFFF;stroke-width:3;stroke-linecap:round;stroke-miterlimit:10;}
	.st6{fill:none;stroke:#0A1F30;stroke-width:3;stroke-miterlimit:10;}
	.st7{fill:none;stroke:#0A1F30;stroke-width:3;stroke-linecap:round;stroke-miterlimit:10;}
	.st8{fill:none;stroke:#36363D;stroke-width:2;stroke-linecap:round;stroke-linejoin:round;stroke-miterlimit:10;}
	.st9{fill:#36363D;}
</style>
<g>
	<g>
		<path class="st9" d="M74.1,23.8c0,3.9-2.6,6.2-6.6,6.2h-4.1V17.5h4.1C71.4,17.5,74.1,19.9,74.1,23.8z M67.4,28.3
			c3,0,4.5-1.7,4.5-4.5c0-2.9-1.6-4.6-4.5-4.6h-2v9.2H67.4z"/>
		<path class="st9" d="M80.4,30.2c-2.8,0-5-2-5-5.1c0-3.1,2-5.1,5-5.1c2.8,0,4.8,2,4.8,4.9c0,0.3,0,0.7-0.1,1h-7.6
			c0.1,1.6,1.3,2.6,2.8,2.6c1.3,0,2-0.6,2.3-1.4h2.2C84.4,28.8,82.8,30.2,80.4,30.2z M77.5,24.2H83c0-1.5-1.2-2.5-2.8-2.5
			C78.9,21.7,77.8,22.6,77.5,24.2z"/>
		<path class="st9" d="M90.8,30.2c-2.4,0-4.1-1.4-4.1-3.2h2.1c0.1,0.8,0.8,1.5,2,1.5c1.2,0,1.8-0.5,1.8-1.2c0-1.9-5.8-0.8-5.8-4.5
			c0-1.6,1.5-2.9,3.8-2.9c2.3,0,3.7,1.2,3.8,3.2h-2.1c-0.1-0.9-0.7-1.5-1.9-1.5c-1.1,0-1.7,0.5-1.7,1.1c0,2,5.6,0.9,5.7,4.5
			C94.6,28.9,93.1,30.2,90.8,30.2z"/>
		<path class="st9" d="M101,19.9c2.4,0,4,1.2,4.6,3.3h-2.2c-0.3-1-1.1-1.6-2.4-1.6c-1.7,0-2.8,1.2-2.8,3.4c0,2.2,1.1,3.4,2.8,3.4
			c1.2,0,2-0.5,2.4-1.6h2.2c-0.6,1.9-2.1,3.3-4.6,3.3c-2.8,0-4.9-2-4.9-5.1C96.1,22,98.1,19.9,101,19.9z"/>
		<path class="st9" d="M111.6,19.9c1.7,0,2.8,0.8,3.4,1.6v-1.4h2.1V30H115v-1.5c-0.6,0.8-1.8,1.6-3.5,1.6c-2.6,0-4.6-2.1-4.6-5.2
			C106.9,22,109,19.9,111.6,19.9z M112,21.7c-1.5,0-3,1.2-3,3.3s1.5,3.4,3,3.4c1.5,0,3-1.2,3-3.3C115,22.9,113.6,21.7,112,21.7z"/>
		<path class="st9" d="M121.9,30h-2.1v-9.9h2.1v1.4c0.6-1,1.6-1.6,3-1.6v2.1h-0.5c-1.5,0-2.4,0.6-2.4,2.7V30z"/>
		<path class="st9" d="M130.7,19.9c1.6,0,2.8,0.8,3.4,1.6v-1.4h2.1v10.1c0,2.7-1.7,4.7-4.8,4.7c-2.6,0-4.6-1.3-4.9-3.5h2
			c0.3,1,1.4,1.7,2.8,1.7c1.6,0,2.8-1,2.8-3v-1.7c-0.6,0.8-1.8,1.7-3.4,1.7c-2.6,0-4.7-2.1-4.7-5.2C126,22,128.1,19.9,130.7,19.9z
			 M131.2,21.7c-1.5,0-3,1.2-3,3.3s1.5,3.4,3,3.4c1.5,0,3-1.2,3-3.3C134.2,22.9,132.7,21.7,131.2,21.7z"/>
		<path class="st9" d="M142.9,19.9c1.7,0,2.8,0.8,3.4,1.6v-1.4h2.1V30h-2.1v-1.5c-0.6,0.8-1.8,1.6-3.5,1.6c-2.6,0-4.6-2.1-4.6-5.2
			C138.2,22,140.3,19.9,142.9,19.9z M143.4,21.7c-1.5,0-3,1.2-3,3.3s1.5,3.4,3,3.4c1.5,0,3-1.2,3-3.3
			C146.4,22.9,144.9,21.7,143.4,21.7z"/>
		<path class="st9" d="M153.2,30h-2.1v-9.9h2.1v1.4c0.6-1,1.6-1.6,3-1.6v2.1h-0.5c-1.5,0-2.4,0.6-2.4,2.7V30z"/>
	</g>
	<g>
		<g>
			<circle class="st8" cx="28.4" cy="25.2" r="18.4"/>
		</g>
		<path class="st9" d="M34.2,26.3c-0.3-0.3-0.9-0.3-1.2,0L29.3,30V11.5c0-0.5-0.4-0.9-0.9-0.9c-0.5,0-0.9,0.4-0.9,0.9V30l-3.7-3.7
			c-0.3-0.3-0.9-0.3-1.2,0s-0.3,0.9,0,1.2l5.2,5.2c0.1,0.1,0.2,0.1,0.3,0.2c0,0,0,0,0,0c0,0,0,0,0,0c0.1,0,0.2,0.1,0.3,0.1
			s0.2,0,0.3-0.1c0,0,0,0,0,0c0,0,0,0,0,0c0.1,0,0.2-0.1,0.3-0.2l5.2-5.2C34.5,27.2,34.5,26.7,34.2,26.3z"/>
		<g>
			<path class="st9" d="M34.4,36.2h-12c-0.2,0-0.4-0.2-0.4-0.4s0.2-0.4,0.4-0.4h12c0.2,0,0.4,0.2,0.4,0.4S34.7,36.2,34.4,36.2z"/>
		</g>
	</g>
</g>
</svg>
