<svg id="Capa_1" data-name="Capa 1" xmlns="http://www.w3.org/2000/svg" viewBox="0 0 68.03 70.34"><defs><style>.cls-1{opacity:0.1;}.cls-2{fill:#0e2030;}.cls-3{fill:#fff;}</style></defs><g class="cls-1"><polygon class="cls-2" points="48.41 62.46 10.57 62.46 10.57 15.97 18.8 8.97 48.41 8.97 48.41 62.46"/></g><polygon class="cls-3" points="46.35 60.13 8.51 60.13 8.51 16.37 17.18 8.97 46.35 8.97 46.35 60.13"/><path class="cls-2" d="M46.69,60.47H8.17V16.21l8.88-7.58H46.69ZM8.86,59.79H46V9.32H17.3L8.86,16.53Z"/><rect class="cls-2" x="30.43" y="14.58" width="10.73" height="0.69"/><rect class="cls-2" x="26.71" y="20.22" width="14.44" height="0.69"/><rect class="cls-2" x="16.02" y="27.87" width="25.13" height="0.69"/><rect class="cls-2" x="16.02" y="36.03" width="25.13" height="0.69"/><rect class="cls-2" x="16.02" y="44.19" width="25.13" height="0.69"/><rect class="cls-2" x="16.02" y="52.35" width="25.13" height="0.69"/><polygon class="cls-2" points="17.52 16.71 8.51 16.71 8.51 16.03 16.84 16.03 16.84 8.97 17.52 8.97 17.52 16.71"/><path class="cls-3" d="M19.45,3h0a2.24,2.24,0,0,1,2.24,2.24V34.09a0,0,0,0,1,0,0H17.21a0,0,0,0,1,0,0V5.28A2.24,2.24,0,0,1,19.45,3Z" transform="translate(16.81 -8.19) rotate(40.7)"/><path class="cls-2" d="M11,32.14a.31.31,0,0,1-.22-.09L7.4,29.13a.34.34,0,0,1,0-.48L26.15,6.81a2.58,2.58,0,1,1,3.92,3.36L11.28,32a.35.35,0,0,1-.23.12Zm-2.91-3.3L11,31.31,29.55,9.73a1.9,1.9,0,1,0-2.88-2.47Z"/><rect class="cls-2" x="26.78" y="7.4" width="0.69" height="4.48" transform="translate(2.13 23.92) rotate(-49.3)"/><polygon class="cls-3" points="7.63 28.88 6.59 33.51 11.02 31.79 7.63 28.88"/><path class="cls-2" d="M6.59,33.85a.35.35,0,0,1-.22-.08.32.32,0,0,1-.11-.33l1-4.64a.34.34,0,0,1,.23-.25.36.36,0,0,1,.33.06l3.39,2.92a.33.33,0,0,1,.12.32.33.33,0,0,1-.22.26L6.72,33.83A.3.3,0,0,1,6.59,33.85Zm1.25-4.34L7.07,33l3.29-1.28Z"/><polygon class="cls-2" points="25.18 19.18 24.66 18.74 30.97 11.4 29.59 10.21 30.03 9.69 31.93 11.33 25.18 19.18"/><path class="cls-2" d="M28.86,11.05l.95-1.1A2.24,2.24,0,1,0,26.41,7l-1,1.14Z"/><polygon class="cls-2" points="49.09 62.8 30.84 62.8 30.84 62.12 48.41 62.12 48.41 26.61 49.09 26.61 49.09 62.8"/></svg>