<?xml version="1.0" encoding="utf-8"?>
<!-- Generator: Adobe Illustrator 23.0.3, SVG Export Plug-In . SVG Version: 6.00 Build 0)  -->
<svg version="1.1" id="Capa_1" xmlns="http://www.w3.org/2000/svg" xmlns:xlink="http://www.w3.org/1999/xlink" x="0px" y="0px"
	 viewBox="0 0 30 28.9" style="enable-background:new 0 0 30 28.9;" xml:space="preserve">
<style type="text/css">
	.st0{fill:none;stroke:#13385D;stroke-miterlimit:10;}
	.st1{fill:#13385D;}
	.st2{fill:#FFFFFF;stroke:#E7E6E6;stroke-miterlimit:10;}
	.st3{fill:#FFFFFF;}
	.st4{fill:none;stroke:#8A8D8E;stroke-linecap:round;stroke-linejoin:round;stroke-miterlimit:10;}
	.st5{fill:#36373D;stroke:#36373D;stroke-miterlimit:10;}
	.st6{fill:none;stroke:#36373D;stroke-miterlimit:10;}
	.st7{fill:none;stroke:#36373D;stroke-linecap:round;stroke-linejoin:round;stroke-miterlimit:10;}
	.st8{fill:#313143;}
	.st9{fill:none;stroke:#313143;stroke-width:6;stroke-miterlimit:10;}
	.st10{fill:none;stroke:#313143;stroke-width:6;stroke-linecap:round;stroke-linejoin:round;stroke-miterlimit:10;}
	.st11{fill:none;stroke:#E0E0E1;stroke-width:2;stroke-miterlimit:10;}
	.st12{fill:#E7E7E9;}
	.st13{fill:none;stroke:#E0E0E1;stroke-width:2;stroke-linecap:round;stroke-linejoin:round;stroke-miterlimit:10;}
	.st14{fill:none;stroke:#36373D;stroke-width:2;stroke-miterlimit:10;}
	.st15{fill:#36373D;}
	.st16{fill:none;stroke:#36373D;stroke-width:2;stroke-linecap:round;stroke-linejoin:round;stroke-miterlimit:10;}
	.st17{fill:none;stroke:#36373D;stroke-width:3;stroke-linecap:round;stroke-linejoin:round;stroke-miterlimit:10;}
	.st18{fill:none;stroke:#36363D;stroke-width:2;stroke-linecap:round;stroke-linejoin:round;stroke-miterlimit:10;}
	.st19{fill:#36363D;}
	.st20{fill:none;stroke:#36363D;stroke-linecap:round;stroke-linejoin:round;stroke-miterlimit:10;}
	.st21{fill:none;stroke:#36363D;stroke-linecap:round;stroke-miterlimit:10;}
	.st22{fill:none;stroke:#36363D;stroke-width:0.5;stroke-linecap:round;stroke-linejoin:round;stroke-miterlimit:10;}
	.st23{fill:none;stroke:#000000;stroke-width:0.5;stroke-linecap:round;stroke-linejoin:round;stroke-miterlimit:10;}
	.st24{fill:none;stroke:#000000;stroke-miterlimit:10;}
	.st25{fill:#04080F;}
	.st26{fill:none;stroke:#04080F;stroke-miterlimit:10;}
	.st27{fill:none;stroke:#04080F;stroke-linecap:round;stroke-miterlimit:10;}
</style>
<g>
	<path d="M19.2,4.1l4.1,3.7v17H8V4.1H19.2 M19.4,3.2H7.5c-0.2,0-0.4,0.2-0.4,0.4v21.7c0,0.2,0.2,0.4,0.4,0.4h16.3
		c0.2,0,0.4-0.2,0.4-0.4V7.6c0-0.1,0-0.2-0.1-0.3l-4.4-4C19.6,3.2,19.5,3.2,19.4,3.2"/>
	<path d="M19.5,3.2v4.3c0,0.1,0.1,0.1,0.1,0.1l4.6-0.1L19.5,3.2z"/>
	<path d="M12,14.8h-0.7v1.7h-0.7v-4.1H12c1,0,1.4,0.6,1.4,1.2C13.5,14.2,13.1,14.8,12,14.8 M12,14.3c0.5,0,0.8-0.3,0.8-0.7
		c0-0.4-0.2-0.7-0.8-0.7h-0.7v1.3H12z"/>
	<path d="M17.6,14.5c0,1.3-0.9,2-2.2,2h-1.3v-4.1h1.3C16.7,12.4,17.6,13.2,17.6,14.5 M15.4,15.9c1,0,1.5-0.6,1.5-1.5
		c0-0.9-0.5-1.5-1.5-1.5h-0.7v3H15.4z"/>
	<polygon points="18.3,12.4 20.7,12.4 20.7,12.9 18.9,12.9 18.9,14.1 20.3,14.1 20.3,14.7 18.9,14.7 18.9,16.5 18.3,16.5 	"/>
</g>
</svg>
