<?xml version="1.0" encoding="utf-8"?>
<!-- Generator: Adobe Illustrator 23.0.2, SVG Export Plug-In . SVG Version: 6.00 Build 0)  -->
<svg version="1.1" id="Capa_1" xmlns="http://www.w3.org/2000/svg" xmlns:xlink="http://www.w3.org/1999/xlink" x="0px" y="0px"
	 viewBox="0 0 37.6 25.55" style="enable-background:new 0 0 37.6 25.55;" xml:space="preserve">
<style type="text/css">
	.st0{fill:none;stroke:#13385D;stroke-miterlimit:10;}
	.st1{fill:#13385D;}
	.st2{fill:#FFFFFF;stroke:#E7E6E6;stroke-miterlimit:10;}
	.st3{fill:#FFFFFF;}
	.st4{fill:none;stroke:#8A8D8E;stroke-linecap:round;stroke-linejoin:round;stroke-miterlimit:10;}
	.st5{fill:#36373D;stroke:#36373D;stroke-miterlimit:10;}
	.st6{fill:none;stroke:#36373D;stroke-miterlimit:10;}
	.st7{fill:none;stroke:#36373D;stroke-linecap:round;stroke-linejoin:round;stroke-miterlimit:10;}
	.st8{fill:#313143;}
	.st9{fill:none;stroke:#313143;stroke-width:6;stroke-miterlimit:10;}
	.st10{fill:none;stroke:#313143;stroke-width:6;stroke-linecap:round;stroke-linejoin:round;stroke-miterlimit:10;}
	.st11{fill:none;stroke:#E0E0E1;stroke-width:2;stroke-miterlimit:10;}
	.st12{fill:#E7E7E9;}
	.st13{fill:none;stroke:#E0E0E1;stroke-width:2;stroke-linecap:round;stroke-linejoin:round;stroke-miterlimit:10;}
	.st14{fill:none;stroke:#36373D;stroke-width:2;stroke-miterlimit:10;}
	.st15{fill:#36373D;}
	.st16{fill:none;stroke:#36373D;stroke-width:2;stroke-linecap:round;stroke-linejoin:round;stroke-miterlimit:10;}
	.st17{fill:none;stroke:#36373D;stroke-width:3;stroke-linecap:round;stroke-linejoin:round;stroke-miterlimit:10;}
</style>
<path id="LAPIZ_1_" class="st15" d="M22.3,5.43c0-0.93-0.36-1.81-1.02-2.47c-0.66-0.66-1.54-1.02-2.47-1.02c0,0,0,0,0,0
	c-0.93,0-1.81,0.36-2.47,1.02s-1.02,1.54-1.02,2.47v0.4c0,0.16,0.05,0.31,0.11,0.44c-0.07,0.13-0.11,0.28-0.11,0.44l0,12.27
	c0,0.01,0,0.01,0,0.02c0,0.12,0.03,0.23,0.07,0.34c0.01,0.03,0.03,0.05,0.04,0.08c0.02,0.04,0.03,0.08,0.06,0.12l2.45,3.63
	c0.18,0.27,0.49,0.44,0.82,0.44c0,0,0.01,0,0.01,0c0.33,0,0.63-0.16,0.82-0.43l2.54-3.63c0.03-0.04,0.05-0.1,0.07-0.14
	c0.01-0.02,0.03-0.04,0.04-0.07c0.04-0.11,0.06-0.22,0.07-0.34c0-0.01,0-0.02,0-0.02l0-12.27c0-0.16-0.05-0.3-0.11-0.44
	c0.07-0.14,0.11-0.28,0.11-0.44V5.43z M18.8,17.98l-1.49,0l0-10.27h2.99l0,10.27L18.8,17.98z M17.75,4.37
	c0.28-0.28,0.66-0.44,1.06-0.44h0c0.4,0,0.77,0.16,1.06,0.44c0.13,0.13,0.24,0.29,0.31,0.46l-2.74,0
	C17.51,4.66,17.61,4.51,17.75,4.37z M18.77,20.85l-0.58-0.86l0.59,0l0.6,0L18.77,20.85z"/>
</svg>
