<?xml version="1.0" encoding="utf-8"?>
<!-- Generator: Adobe Illustrator 23.0.2, SVG Export Plug-In . SVG Version: 6.00 Build 0)  -->
<svg version="1.1" id="Capa_1" xmlns="http://www.w3.org/2000/svg" xmlns:xlink="http://www.w3.org/1999/xlink" x="0px" y="0px"
	 viewBox="0 0 152.63 147.2" style="enable-background:new 0 0 152.63 147.2;" xml:space="preserve">
<style type="text/css">
	.st0{fill:none;stroke:#13385D;stroke-miterlimit:10;}
	.st1{fill:#13385D;}
	.st2{fill:#FFFFFF;stroke:#E7E6E6;stroke-miterlimit:10;}
	.st3{fill:#FFFFFF;}
	.st4{fill:none;stroke:#8A8D8E;stroke-linecap:round;stroke-linejoin:round;stroke-miterlimit:10;}
	.st5{fill:#36373D;stroke:#36373D;stroke-miterlimit:10;}
	.st6{fill:none;stroke:#36373D;stroke-miterlimit:10;}
	.st7{fill:none;stroke:#36373D;stroke-linecap:round;stroke-linejoin:round;stroke-miterlimit:10;}
	.st8{fill:#313143;}
	.st9{fill:none;stroke:#313143;stroke-width:6;stroke-miterlimit:10;}
	.st10{fill:none;stroke:#313143;stroke-width:6;stroke-linecap:round;stroke-linejoin:round;stroke-miterlimit:10;}
	.st11{fill:none;stroke:#E0E0E1;stroke-width:2;stroke-miterlimit:10;}
	.st12{fill:#E7E7E9;}
	.st13{fill:none;stroke:#E0E0E1;stroke-width:2;stroke-linecap:round;stroke-linejoin:round;stroke-miterlimit:10;}
	.st14{fill:none;stroke:#36373D;stroke-width:2;stroke-miterlimit:10;}
	.st15{fill:#36373D;}
	.st16{fill:none;stroke:#36373D;stroke-width:2;stroke-linecap:round;stroke-linejoin:round;stroke-miterlimit:10;}
	.st17{fill:none;stroke:#36373D;stroke-width:3;stroke-linecap:round;stroke-linejoin:round;stroke-miterlimit:10;}
</style>
<g id="logo_x5F_color_1_">
	<path class="st8" d="M71.24,34.5C50,34.5,32.79,51.71,32.79,72.95S50,111.4,71.24,111.4c7.82,0,15.1-2.34,21.17-6.35
		c-0.25,0.04-0.5,0.08-0.77,0.08c-3.03,0-5.49-2.46-5.49-5.49c0-3.03,2.46-5.49,5.49-5.49s5.49,2.46,5.49,5.49
		c0,0.75-0.15,1.46-0.42,2.11c7.96-7.04,12.98-17.33,12.98-28.79C109.69,51.71,92.47,34.5,71.24,34.5z M63.39,84.72
		c-9.97,0-18.05-8.08-18.05-18.05s8.08-18.05,18.05-18.05s18.05,8.08,18.05,18.05S73.36,84.72,63.39,84.72z"/>
	<circle class="st9" cx="71.95" cy="72.23" r="63.05"/>
	<line class="st10" x1="119.42" y1="113.71" x2="143.72" y2="138.02"/>
</g>
</svg>
