<?xml version="1.0" encoding="utf-8"?>
<!-- Generator: Adobe Illustrator 23.0.2, SVG Export Plug-In . SVG Version: 6.00 Build 0)  -->
<svg version="1.1" id="Capa_1" xmlns="http://www.w3.org/2000/svg" xmlns:xlink="http://www.w3.org/1999/xlink" x="0px" y="0px"
	 viewBox="0 0 65.27 64.39" style="enable-background:new 0 0 65.27 64.39;" xml:space="preserve">
<style type="text/css">
	.st0{fill:none;stroke:#13385D;stroke-miterlimit:10;}
	.st1{fill:#13385D;}
	.st2{fill:#FFFFFF;stroke:#E7E6E6;stroke-miterlimit:10;}
	.st3{fill:#FFFFFF;}
	.st4{fill:none;stroke:#8A8D8E;stroke-linecap:round;stroke-linejoin:round;stroke-miterlimit:10;}
	.st5{fill:#36373D;stroke:#36373D;stroke-miterlimit:10;}
	.st6{fill:none;stroke:#36373D;stroke-miterlimit:10;}
	.st7{fill:none;stroke:#36373D;stroke-linecap:round;stroke-linejoin:round;stroke-miterlimit:10;}
	.st8{fill:#313143;}
	.st9{fill:none;stroke:#313143;stroke-width:6;stroke-miterlimit:10;}
	.st10{fill:none;stroke:#313143;stroke-width:6;stroke-linecap:round;stroke-linejoin:round;stroke-miterlimit:10;}
	.st11{fill:none;stroke:#E0E0E1;stroke-width:2;stroke-miterlimit:10;}
	.st12{fill:#E7E7E9;}
	.st13{fill:none;stroke:#E0E0E1;stroke-width:2;stroke-linecap:round;stroke-linejoin:round;stroke-miterlimit:10;}
	.st14{fill:none;stroke:#36373D;stroke-width:2;stroke-miterlimit:10;}
	.st15{fill:#36373D;}
	.st16{fill:none;stroke:#36373D;stroke-width:2;stroke-linecap:round;stroke-linejoin:round;stroke-miterlimit:10;}
	.st17{fill:none;stroke:#36373D;stroke-width:3;stroke-linecap:round;stroke-linejoin:round;stroke-miterlimit:10;}
</style>
<g id="logo_x5F_blanco_1_">
	<path class="st3" d="M30.69,17.17c-8.16,0-14.77,6.61-14.77,14.77c0,8.16,6.61,14.77,14.77,14.77c3.01,0,5.8-0.9,8.13-2.44
		c-0.1,0.01-0.19,0.03-0.29,0.03c-1.17,0-2.11-0.94-2.11-2.11c0-1.17,0.94-2.11,2.11-2.11c1.17,0,2.11,0.94,2.11,2.11
		c0,0.29-0.06,0.56-0.16,0.81c3.06-2.71,4.99-6.66,4.99-11.06C45.46,23.78,38.84,17.17,30.69,17.17z M27.67,36.47
		c-3.83,0-6.93-3.1-6.93-6.93s3.1-6.93,6.93-6.93c3.83,0,6.93,3.1,6.93,6.93S31.5,36.47,27.67,36.47z"/>
	<path class="st3" d="M59.6,55.88l-8.38-8.38c3.42-4.37,5.47-9.86,5.47-15.83c0-14.18-11.54-25.72-25.72-25.72
		c-14.18,0-25.72,11.54-25.72,25.72s11.54,25.72,25.72,25.72c7.14,0,13.6-2.92,18.27-7.63l8.25,8.25c0.29,0.29,0.68,0.44,1.06,0.44
		s0.77-0.15,1.06-0.44C60.18,57.42,60.18,56.47,59.6,55.88z M30.96,54.39c-12.53,0-22.72-10.19-22.72-22.72
		c0-12.53,10.19-22.72,22.72-22.72s22.72,10.19,22.72,22.72C53.68,44.2,43.49,54.39,30.96,54.39z"/>
</g>
</svg>
