<svg version="1.1" id="Capa_1" xmlns="http://www.w3.org/2000/svg" xmlns:xlink="http://www.w3.org/1999/xlink" x="0px" y="0px"
	 viewBox="0 0 612 463.8" style="enable-background:new 0 0 612 463.8;" xml:space="preserve" width="612px" height="463.8px">
<style type="text/css">
	.st0{fill:none;stroke:#13385D;stroke-miterlimit:10;}
	.st1{fill:#13385D;}
	.st2{fill:#FFFFFF;stroke:#E7E6E6;stroke-miterlimit:10;}
	.st3{fill:#FFFFFF;}
	.st4{fill:none;stroke:#8A8D8E;stroke-linecap:round;stroke-linejoin:round;stroke-miterlimit:10;}
	.st5{fill:#36373D;stroke:#36373D;stroke-miterlimit:10;}
	.st6{fill:none;stroke:#36373D;stroke-miterlimit:10;}
	.st7{fill:none;stroke:#36373D;stroke-linecap:round;stroke-linejoin:round;stroke-miterlimit:10;}
	.st8{fill:#313143;}
	.st9{fill:none;stroke:#313143;stroke-width:6;stroke-miterlimit:10;}
	.st10{fill:none;stroke:#313143;stroke-width:6;stroke-linecap:round;stroke-linejoin:round;stroke-miterlimit:10;}
	.st11{fill:none;stroke:#E0E0E1;stroke-width:2;stroke-miterlimit:10;}
	.st12{fill:#E7E7E9;}
	.st13{fill:none;stroke:#E0E0E1;stroke-width:2;stroke-linecap:round;stroke-linejoin:round;stroke-miterlimit:10;}
	.st14{fill:none;stroke:#36373D;stroke-width:2;stroke-miterlimit:10;}
	.st15{fill:#36373D;}
	.st16{fill:none;stroke:#36373D;stroke-width:2;stroke-linecap:round;stroke-linejoin:round;stroke-miterlimit:10;}
	.st17{fill:none;stroke:#36373D;stroke-width:3;stroke-linecap:round;stroke-linejoin:round;stroke-miterlimit:10;}
	.st18{fill:none;stroke:#36363D;stroke-width:2;stroke-linecap:round;stroke-linejoin:round;stroke-miterlimit:10;}
	.st19{fill:#36363D;}
	.st20{fill:none;stroke:#36363D;stroke-linecap:round;stroke-linejoin:round;stroke-miterlimit:10;}
	.st21{fill:none;stroke:#36363D;stroke-linecap:round;stroke-miterlimit:10;}
	.st22{fill:none;stroke:#36363D;stroke-width:0.5;stroke-linecap:round;stroke-linejoin:round;stroke-miterlimit:10;}
	.st23{fill:none;stroke:#000000;stroke-width:0.5;stroke-linecap:round;stroke-linejoin:round;stroke-miterlimit:10;}
	.st24{fill:none;stroke:#000000;stroke-miterlimit:10;}
	.st25{fill:#04080F;}
</style>
<g id="flecha_x5F_izquierda">
	<circle class="st0" cx="31.5" cy="33.7" r="19.9"/>
	<path class="st1" d="M39,32.8H27.1l3-3l-1.2-1.2l-5.1,5.1l5,5l1.2-1.2l-3-3h12V32.8z"/>
</g>
<g id="flecha_x5F_derecha">
	<circle class="st0" cx="152.6" cy="33.7" r="19.9"/>
	<path class="st1" d="M145,34.5h11.9l-3,3l1.2,1.2l5.1-5l-5.1-5l-1.2,1.2l3,3H145V34.5z"/>
</g>
<g id="mas">
	<path class="st2" d="M277,23.5v7.2h7v6.1h-7v7.1h-6.5v-7.1h-7v-6.1h7v-7.2H277z"/>
</g>
<g id="menos">
	<path class="st2" d="M507.2,30.8h17.6v5.7h-17.6L507.2,30.8L507.2,30.8z"/>
</g>
<g id="logout">
	<polygon class="st3" points="37.8,132.3 22.5,132.3 22.5,126 24.1,126 24.1,130.7 36.2,130.7 36.2,110.6 24.1,110.6 24.1,116.2 
		22.5,116.2 22.5,109 37.8,109 	"/>
	<polygon class="st3" points="33.3,119.8 26.9,119.8 26.9,116.7 19.6,120.9 26.9,125.1 26.9,122 33.3,122 	"/>
</g>
<g id="regulatorio_x5F_grey">
	<circle class="st4" cx="23.3" cy="176.1" r="3.8"/>
	<circle class="st4" cx="23.3" cy="188.1" r="3.8"/>
	<rect x="32.4" y="178.2" class="st4" width="7.3" height="7.3"/>
	<line class="st4" x1="23.3" y1="181.2" x2="23.3" y2="183.2"/>
	<line class="st4" x1="23.4" y1="182.2" x2="31.1" y2="182.2"/>
</g>
<g id="institucional_x5F_grey">
	<circle class="st4" cx="104.1" cy="173.3" r="2.3"/>
	<circle class="st4" cx="110.4" cy="182" r="2.3"/>
	<circle class="st4" cx="120.4" cy="182" r="2.3"/>
	<circle class="st4" cx="104.1" cy="190.9" r="2.3"/>
	<polyline class="st4" points="104.1,175.6 104.1,178.1 110.7,178.1 110.7,179.7 	"/>
	<polyline class="st4" points="110.7,184.4 110.7,186.9 104.1,186.9 104.1,188.6 	"/>
	<line class="st4" x1="112.8" y1="182" x2="118.1" y2="182"/>
</g>
<g id="individual_x5F_active">
	<polyline class="st0" points="187.6,231.4 187.6,248.3 173.9,248.3 173.9,241.1 	"/>
	<polyline class="st0" points="184.2,231.4 170.5,231.4 170.5,248.2 	"/>
	<line class="st0" x1="177.4" y1="231.4" x2="177.4" y2="238.6"/>
	<polyline class="st0" points="184.5,238.2 180.8,238.2 180.8,234.8 187.6,234.8 	"/>
	<line class="st0" x1="187.6" y1="244.9" x2="177.8" y2="244.9"/>
</g>
<g id="individual_x5F_grey">
	<polyline class="st4" points="187.6,173.7 187.6,190.6 173.9,190.6 173.9,183.3 	"/>
	<polyline class="st4" points="184.2,173.7 170.5,173.7 170.5,190.4 	"/>
	<line class="st4" x1="177.4" y1="173.7" x2="177.4" y2="180.8"/>
	<polyline class="st4" points="184.5,180.4 180.8,180.4 180.8,177 187.6,177 	"/>
	<line class="st4" x1="187.6" y1="187.1" x2="177.8" y2="187.1"/>
</g>
<g id="institucional_x5F_active">
	<circle class="st0" cx="104.1" cy="231" r="2.3"/>
	<circle class="st0" cx="110.4" cy="239.8" r="2.3"/>
	<circle class="st0" cx="120.4" cy="239.8" r="2.3"/>
	<circle class="st0" cx="104.1" cy="248.7" r="2.3"/>
	<polyline class="st0" points="104.1,233.4 104.1,235.9 110.7,235.9 110.7,237.5 	"/>
	<polyline class="st0" points="110.7,242.2 110.7,244.7 104.1,244.7 104.1,246.3 	"/>
	<line class="st0" x1="112.8" y1="239.8" x2="118.1" y2="239.8"/>
</g>
<g id="regulatorio_x5F_active">
	<circle class="st0" cx="23.3" cy="233.9" r="3.8"/>
	<circle class="st0" cx="23.3" cy="245.9" r="3.8"/>
	<rect x="32.4" y="236" class="st0" width="7.3" height="7.3"/>
	<line class="st0" x1="23.3" y1="238.9" x2="23.3" y2="240.9"/>
	<line class="st0" x1="23.4" y1="239.9" x2="31.1" y2="239.9"/>
</g>
<g id="base_x5F_de_x5F_datos">
	<rect x="19.6" y="298.1" class="st5" width="11.5" height="5"/>
	<rect x="31.6" y="298.1" class="st6" width="11.5" height="5"/>
	<rect x="19.6" y="303.7" class="st6" width="11.5" height="5"/>
	<rect x="31.6" y="303.7" class="st6" width="11.5" height="5"/>
	<rect x="19.6" y="309.3" class="st6" width="11.5" height="5"/>
	<rect x="31.6" y="309.3" class="st6" width="11.5" height="5"/>
</g>
<g id="organigrama">
	<path class="st7" d="M116.2,300.7h-7.8c-0.2,0-0.4-0.2-0.4-0.4v-3.7c0-0.2,0.2-0.4,0.4-0.4h7.8c0.2,0,0.4,0.2,0.4,0.4v3.7
		C116.6,300.5,116.4,300.7,116.2,300.7z"/>
	<path class="st7" d="M110,311.2h-7.8c-0.2,0-0.4-0.2-0.4-0.4v-3.7c0-0.2,0.2-0.4,0.4-0.4h7.8c0.2,0,0.4,0.2,0.4,0.4v3.7
		C110.4,311,110.2,311.2,110,311.2z"/>
	<path class="st7" d="M122.8,311.2H115c-0.2,0-0.4-0.2-0.4-0.4v-3.7c0-0.2,0.2-0.4,0.4-0.4h7.8c0.2,0,0.4,0.2,0.4,0.4v3.7
		C123.2,311,123,311.2,122.8,311.2z"/>
	<g>
		<polyline class="st7" points="112.3,302.2 112.3,303.7 106.1,303.7 106.1,305.2 		"/>
		<polyline class="st7" points="112.3,303.7 118.9,303.7 118.9,305.2 		"/>
	</g>
</g>
<g id="mapa_x5F_icon">
	<g>
		<polygon class="st7" points="186.5,304 173.9,309.4 180.2,310.3 181,316.6 		"/>
		<circle class="st7" cx="181.2" cy="309.5" r="10.7"/>
	</g>
</g>
<g id="logo_x5F_blanco">
	<path class="st3" d="M37.8,404.3c-8.2,0-14.8,6.6-14.8,14.8s6.6,14.8,14.8,14.8c3,0,5.8-0.9,8.1-2.4c-0.1,0-0.2,0-0.3,0
		c-1.2,0-2.1-0.9-2.1-2.1s0.9-2.1,2.1-2.1c1.2,0,2.1,0.9,2.1,2.1c0,0.3-0.1,0.6-0.2,0.8c3.1-2.7,5-6.7,5-11.1
		C52.5,410.9,45.9,404.3,37.8,404.3z M34.7,423.6c-3.8,0-6.9-3.1-6.9-6.9s3.1-6.9,6.9-6.9s6.9,3.1,6.9,6.9S38.6,423.6,34.7,423.6z"
		/>
	<path class="st3" d="M66.7,443l-8.4-8.4c3.4-4.4,5.5-9.9,5.5-15.8c0-14.2-11.5-25.7-25.7-25.7s-25.7,11.5-25.7,25.7
		s11.5,25.7,25.7,25.7c7.1,0,13.6-2.9,18.3-7.6l8.2,8.2c0.3,0.3,0.7,0.4,1.1,0.4s0.8-0.1,1.1-0.4C67.2,444.5,67.2,443.6,66.7,443z
		 M38,441.5c-12.5,0-22.7-10.2-22.7-22.7s10.2-22.7,22.7-22.7s22.7,10.2,22.7,22.7S50.5,441.5,38,441.5z"/>
</g>
<g>
	<polygon class="st3" points="403.8,37.2 402.8,38.2 395.6,31 388.4,38.2 387.4,37.2 395.6,29 	"/>
	<path class="st3" d="M395.6,28.5l8.7,8.7l-1.5,1.5l-7.2-7.2l-7.2,7.2l-1.5-1.5L395.6,28.5z M403.3,37.2l-7.7-7.7l-7.7,7.7l0.5,0.5
		l7.2-7.2l7.2,7.2L403.3,37.2z"/>
</g>
<g id="logo_x5F_color">
	<path class="st8" d="M466.1,201.8c-21.2,0-38.5,17.2-38.5,38.4s17.2,38.4,38.5,38.4c7.8,0,15.1-2.3,21.2-6.4
		c-0.2,0-0.5,0.1-0.8,0.1c-3,0-5.5-2.5-5.5-5.5s2.5-5.5,5.5-5.5s5.5,2.5,5.5,5.5c0,0.8-0.1,1.5-0.4,2.1c8-7,13-17.3,13-28.8
		C504.5,219.1,487.3,201.8,466.1,201.8z M458.2,252.1c-10,0-18-8.1-18-18.1s8.1-18.1,18-18.1s18,8.1,18,18.1
		C476.3,244,468.2,252.1,458.2,252.1z"/>
	<circle class="st9" cx="466.8" cy="239.6" r="63"/>
	<line class="st10" x1="514.3" y1="281.1" x2="538.6" y2="305.4"/>
</g>
<g id="ojo_x5F_grey">
	<circle class="st11" cx="27.8" cy="367.6" r="4.6"/>
	<circle class="st12" cx="27.8" cy="367.6" r="2.1"/>
	<path class="st13" d="M40.3,367.6l-6.2-3.2c-2-1.1-4.2-1.6-6.4-1.6l0,0l0,0l0,0l0,0c-2.2,0-4.4,0.5-6.4,1.6l-6.1,3.2h-0.1h0.1
		l6.1,3.2c2,1.1,4.2,1.6,6.4,1.6l0,0l0,0l0,0l0,0c2.2,0,4.4-0.5,6.4-1.6L40.3,367.6L40.3,367.6L40.3,367.6z"/>
</g>
<g id="ojo_x5F_active">
	<circle class="st14" cx="86.6" cy="363" r="4.6"/>
	<circle class="st15" cx="86.6" cy="363" r="2.1"/>
	<path class="st16" d="M99.1,362.9l-6.2-3.2c-2-1.1-4.2-1.6-6.4-1.6l0,0l0,0l0,0l0,0c-2.2,0-4.4,0.5-6.4,1.6l-6.2,3.2h-0.1h0.1
		l6.2,3.2c2,1.1,4.2,1.6,6.4,1.6l0,0l0,0l0,0l0,0c2.2,0,4.4-0.5,6.4-1.6L99.1,362.9L99.1,362.9L99.1,362.9z"/>
</g>
<path id="LAPIZ" class="st15" d="M90.1,395.6c0-0.9-0.4-1.8-1-2.5c-0.7-0.7-1.5-1-2.5-1l0,0c-0.9,0-1.8,0.4-2.5,1s-1,1.5-1,2.5v0.4
	c0,0.2,0.1,0.3,0.1,0.4c-0.1,0.1-0.1,0.3-0.1,0.4v12.3l0,0c0,0.1,0,0.2,0.1,0.3c0,0,0,0,0,0.1c0,0,0,0.1,0.1,0.1l2.4,3.6
	c0.2,0.3,0.5,0.4,0.8,0.4l0,0c0.3,0,0.6-0.2,0.8-0.4l2.5-3.6l0.1-0.1c0,0,0,0,0-0.1s0.1-0.2,0.1-0.3l0,0v-12.3
	c0-0.2-0.1-0.3-0.1-0.4c0.1-0.1,0.1-0.3,0.1-0.4L90.1,395.6L90.1,395.6z M86.6,408.2h-1.5v-10.3h3v10.3H86.6z M85.5,394.5
	c0.3-0.3,0.7-0.4,1.1-0.4l0,0c0.4,0,0.8,0.2,1.1,0.4c0.1,0.1,0.2,0.3,0.3,0.5h-2.7C85.3,394.8,85.4,394.7,85.5,394.5z M86.6,411
	l-0.6-0.9h0.6h0.6L86.6,411z"/>
<g id="icono_x5F_subir_x5F_small">
	<g>
		<g>
			<polyline class="st16" points="158.2,410.6 158.2,393.5 153.2,398.5 			"/>
			<line class="st16" x1="158.2" y1="393.5" x2="163.3" y2="398.6"/>
		</g>
		<polyline class="st16" points="148.5,405.1 148.5,412.4 167.9,412.4 167.9,405.1 		"/>
	</g>
</g>
<g id="icono_x5F_subir">
	<g>
		<polyline class="st16" points="220.6,410.2 220.6,385.1 213.2,392.5 		"/>
		<line class="st16" x1="220.6" y1="385.1" x2="228.1" y2="392.6"/>
	</g>
	<polyline class="st16" points="206.3,402.1 206.3,412.8 234.8,412.8 234.8,402.1 	"/>
</g>
<g id="candado">
	<g>
		<path class="st15" d="M388,398c0-1.1-1-2-2.3-2s-2.3,0.9-2.3,2c0,0.8,0.5,1.5,1.3,1.8c0,0,0,0,0,0.1v4.2c0,0.5,0.5,0.9,1,0.9
			c0.6,0,1-0.4,1-0.9v-4.2c0,0,0,0,0-0.1C387.5,399.4,388,398.8,388,398z"/>
		<circle class="st16" cx="385.7" cy="400.8" r="8.9"/>
		<path class="st16" d="M381.6,393v-4.4c0-1.6,1.8-2.9,4.1-2.9l0,0c2.3,0,4.1,1.3,4.1,2.9v4.4"/>
	</g>
</g>
<g id="tache">
	<g>
		<line class="st16" x1="293.3" y1="388.4" x2="311.8" y2="406.9"/>
		<line class="st16" x1="311.8" y1="388.4" x2="293.3" y2="406.9"/>
	</g>
</g>
<g id="flecha_x5F_abajo">
	<line class="st17" x1="469.3" y1="405.4" x2="482.8" y2="391.9"/>
	<line class="st17" x1="469.6" y1="405.4" x2="456" y2="391.9"/>
</g>
<g id="flecha_x5F_arriba">
	<line class="st17" x1="538.7" y1="391.9" x2="525.2" y2="405.4"/>
	<line class="st17" x1="538.4" y1="391.9" x2="552" y2="405.4"/>
</g>
<g>
	<g>
		<path class="st18" d="M257.2,221.5v32.2c0,0.3,0.3,0.6,0.6,0.6h21.3c0.1,0,0.3,0,0.4-0.1l4.8-4.2c0.1-0.1,0.2-0.3,0.2-0.4v-28
			c0-0.3-0.3-0.6-0.6-0.6l-26.2,0.1C257.4,220.9,257.2,221.2,257.2,221.5z"/>
		<path class="st19" d="M279,254.3V250c0-0.4,0.4-0.8,0.8-0.8l5-0.1L279,254.3z"/>
	</g>
	<g>
		<g>
			<rect x="271.6" y="234.2" class="st19" width="2.8" height="6.4"/>
			<rect x="274.9" y="232.3" class="st19" width="2.8" height="8.3"/>
			<rect x="278.5" y="231.1" class="st19" width="2.8" height="9.6"/>
		</g>
		<polyline class="st20" points="271.1,233.9 273.2,231.8 273.8,232.4 277.5,228.6 278.2,229.3 281.5,226 279.9,226 		"/>
		<line class="st21" x1="281.5" y1="226" x2="281.5" y2="227.4"/>
	</g>
	<rect x="260.7" y="237.8" class="st22" width="8.6" height="0.7"/>
	<rect x="260.7" y="240.5" class="st22" width="8.6" height="0.7"/>
	<rect x="260.7" y="243.2" class="st22" width="8.1" height="0.7"/>
	<rect x="260.7" y="229.6" class="st22" width="8.6" height="0.7"/>
	<rect x="260.7" y="232.3" class="st22" width="8.6" height="0.7"/>
	<rect x="260.7" y="235" class="st22" width="8.1" height="0.7"/>
	<rect x="260.7" y="245.9" class="st22" width="17.9" height="0.7"/>
	<rect x="260.7" y="248.7" class="st22" width="17.9" height="0.7"/>
</g>
<g>
	<g>
		<g>
			<path class="st19" d="M271.4,316.2c-0.3,0-0.5-0.1-0.7-0.2c-0.5-0.4-1.1-0.4-1.5-0.1c-0.3,0.2-0.7,0.3-1,0.2
				c-0.5-0.2-1-0.7-1.5-1.7c-3.9-8.3-3.9-9.4-3.9-9.8c0-4,3.3-7.3,7.3-7.3s7.3,3.3,7.3,7.3c0,0.4,0,1.5-3.9,9.8
				c-0.5,1-1.1,1.7-1.7,1.8C271.5,316.2,271.5,316.2,271.4,316.2z M269.8,314.9c0.5,0,0.9,0.2,1.3,0.5c0.1,0.1,0.2,0.1,0.4,0.1
				c0.4-0.1,0.9-0.6,1.2-1.4c3.2-6.7,3.9-8.9,3.9-9.5c0-3.6-2.9-6.6-6.6-6.6s-6.6,2.9-6.6,6.6c0,0.5,0.5,2.3,3.9,9.4
				c0.5,1,0.8,1.2,1,1.3c0.1,0,0.2,0,0.4-0.1C269,315,269.4,314.9,269.8,314.9z"/>
		</g>
		<g>
			<path class="st19" d="M271.8,318h-3.5c-0.3,0-0.5-0.2-0.5-0.5v-0.2c0-0.3,0.2-0.5,0.5-0.5h3.5c0.3,0,0.5,0.2,0.5,0.5v0.2
				C272.3,317.7,272,318,271.8,318z"/>
		</g>
		<g>
			<path class="st19" d="M270.9,319.9H269c-0.3,0-0.5-0.2-0.5-0.5v-0.2c0-0.3,0.2-0.5,0.5-0.5h1.9c0.3,0,0.5,0.2,0.5,0.5v0.2
				C271.5,319.7,271.2,319.9,270.9,319.9z"/>
		</g>
		<g>
			<path class="st19" d="M270.6,313.9h-1.1c-0.3,0-0.6-0.3-0.6-0.6v-4.1l-1.1-1.4c-0.1-0.2-0.2-0.4-0.1-0.6s0.3-0.3,0.5-0.3h3.5
				c0.2,0,0.4,0.1,0.5,0.3c0.1,0.2,0.1,0.4-0.1,0.6l-1.1,1.4v4.1C271.1,313.6,270.9,313.9,270.6,313.9z M269.6,313.1h0.8v-4
				c0-0.1,0-0.3,0.1-0.4l0.9-1.2h-2.9l0.9,1.2c0.1,0.1,0.1,0.2,0.1,0.4v4H269.6z M271.7,307.6L271.7,307.6L271.7,307.6z"/>
		</g>
	</g>
	<g>
		<g>
			<path class="st18" d="M256.2,292.5v32.2c0,0.3,0.3,0.6,0.6,0.6h21.3c0.1,0,0.3,0,0.4-0.1l4.8-4.2c0.1-0.1,0.2-0.3,0.2-0.4v-28
				c0-0.3-0.3-0.6-0.6-0.6l-26.2,0.1C256.4,292,256.2,292.2,256.2,292.5z"/>
			<path class="st19" d="M278,325.3V321c0-0.4,0.4-0.8,0.8-0.8l5-0.1L278,325.3z"/>
		</g>
	</g>
</g>
<g>
	<rect x="260.6" y="170.5" class="st22" width="5.1" height="0.7"/>
	<rect x="260.6" y="173.2" class="st22" width="4" height="0.7"/>
	<rect x="260.6" y="175.9" class="st22" width="3.8" height="0.7"/>
	<rect x="260.6" y="162.3" class="st22" width="19.5" height="0.7"/>
	<rect x="260.6" y="165" class="st22" width="19.5" height="0.7"/>
	<rect x="260.6" y="167.7" class="st22" width="4.8" height="0.7"/>
	<rect x="260.6" y="178.6" class="st22" width="3.8" height="0.7"/>
	<rect x="260.6" y="181.4" class="st22" width="3.8" height="0.7"/>
	<rect x="260.6" y="184.1" class="st22" width="6.2" height="0.7"/>
	<rect x="260.6" y="186.8" class="st22" width="15.1" height="0.7"/>
	<g>
		<g>
			<g>
				<path class="st18" d="M256.7,157.5v32.2c0,0.3,0.3,0.6,0.6,0.6h21.3c0.1,0,0.3,0,0.4-0.1l4.8-4.2c0.1-0.1,0.2-0.3,0.2-0.4v-28
					c0-0.3-0.3-0.6-0.6-0.6l-26.2,0.1C256.9,156.9,256.7,157.2,256.7,157.5z"/>
				<path class="st19" d="M278.5,190.3V186c0-0.4,0.4-0.8,0.8-0.8l5-0.1L278.5,190.3z"/>
			</g>
		</g>
	</g>
	<path class="st19" d="M291,190.8l-10-10l-0.3,0.3l-1.1-1.1c1-1.3,1.7-3,1.7-4.8c0-4.3-3.5-7.8-7.8-7.8s-7.8,3.5-7.8,7.8
		s3.5,7.8,7.8,7.8c2.2,0,4.1-0.9,5.5-2.3l1.1,1.1l-0.2,0.2l10,10c0.3,0.3,0.7,0.3,1,0l0.1-0.1C291.3,191.5,291.3,191.1,291,190.8z
		 M273.5,181.7c-3.7,0-6.7-3-6.7-6.7s3-6.7,6.7-6.7s6.7,3,6.7,6.7C280.1,178.8,277.2,181.7,273.5,181.7z"/>
</g>
<g id="example_x5F_icon">
	<g>
		<path class="st19" d="M380.8,96.1c-4.5,0-8.1-3.6-8.1-8.1s3.6-8.1,8.1-8.1s8.1,3.6,8.1,8.1S385.3,96.1,380.8,96.1z M380.8,80.6
			c-4.1,0-7.5,3.3-7.5,7.5s3.3,7.5,7.5,7.5c4.1,0,7.5-3.3,7.5-7.5S384.9,80.6,380.8,80.6z"/>
		<g>
			<path class="st19" d="M380.2,85c0-0.2,0.1-0.4,0.2-0.5s0.3-0.2,0.5-0.2s0.4,0.1,0.5,0.2s0.2,0.3,0.2,0.5s-0.1,0.3-0.2,0.5
				c-0.1,0.1-0.3,0.2-0.5,0.2s-0.4-0.1-0.5-0.2C380.2,85.3,380.2,85.2,380.2,85z M381.4,91.7h-1.1v-5.3h1.1V91.7z"/>
		</g>
	</g>
</g>
<g id="sede_x5F_icon">
	<rect x="444.3" y="89.6" class="st20" width="24.2" height="8.4"/>
	<rect x="446.4" y="84.7" class="st20" width="19.9" height="4.9"/>
	<path class="st20" d="M456.3,79.3c-3,0-5.4,2.4-5.4,5.4h10.8C461.7,81.7,459.3,79.3,456.3,79.3z"/>
	<line class="st20" x1="456.3" y1="79.3" x2="456.3" y2="77.8"/>
	<g>
		<line class="st20" x1="448.5" y1="98" x2="448.5" y2="92.7"/>
		<line class="st20" x1="456.4" y1="98" x2="456.4" y2="92.7"/>
		<line class="st20" x1="464.3" y1="98" x2="464.3" y2="92.7"/>
	</g>
</g>
<g id="printer_x5F_icon_1_">
	<path d="M384.7,125.2l4.1,3.7v17h-15.3v-20.8h11.2 M384.9,124.3H373c-0.2,0-0.4,0.2-0.4,0.4v21.7c0,0.2,0.2,0.4,0.4,0.4h16.3
		c0.2,0,0.4-0.2,0.4-0.4v-17.7c0-0.1,0-0.2-0.1-0.3l-4.4-4C385.1,124.4,385,124.3,384.9,124.3"/>
	<path d="M385,124.3v4.3c0,0.1,0.1,0.1,0.1,0.1l4.6-0.1L385,124.3z"/>
	<path d="M377.5,136h-0.7v1.7h-0.7v-4.1h1.4c1,0,1.4,0.6,1.4,1.2C379,135.3,378.6,136,377.5,136 M377.5,135.4c0.5,0,0.8-0.3,0.8-0.7
		s-0.2-0.7-0.8-0.7h-0.7v1.3L377.5,135.4L377.5,135.4z"/>
	<path d="M383.1,135.6c0,1.3-0.9,2-2.2,2h-1.3v-4.1h1.3C382.2,133.5,383.1,134.3,383.1,135.6 M380.9,137.1c1,0,1.5-0.6,1.5-1.5
		s-0.5-1.5-1.5-1.5h-0.7v3H380.9z"/>
	<polygon points="383.8,133.5 386.2,133.5 386.2,134.1 384.4,134.1 384.4,135.3 385.8,135.3 385.8,135.8 384.4,135.8 384.4,137.6 
		383.8,137.6 	"/>
</g>
<g id="printer_x5F_icon">
	<path d="M462,146h-12v-6.7h12V146z M462.3,138.4h-12.7c-0.3,0-0.6,0.2-0.6,0.6v7.3c0,0.3,0.2,0.6,0.6,0.6h12.7
		c0.3,0,0.6-0.2,0.6-0.6V139C462.9,138.7,462.6,138.4,462.3,138.4"/>
	<line class="st23" x1="450.5" y1="140.9" x2="461.1" y2="140.9"/>
	<line class="st23" x1="450.5" y1="142.4" x2="458.9" y2="142.4"/>
	<line class="st23" x1="450.5" y1="144" x2="461.1" y2="144"/>
	<path class="st24" d="M448.8,142.4h-3.9c-0.1,0-0.2-0.1-0.2-0.3v-9c0-0.1,0.1-0.3,0.2-0.3h22.2c0.1,0,0.2,0.1,0.2,0.3v9.5
		c0,0.1-0.1,0.3-0.2,0.3h-3.8"/>
	<path d="M465.8,135.2c0,0.3-0.3,0.6-0.6,0.6c-0.3,0-0.6-0.3-0.6-0.6s0.3-0.6,0.6-0.6C465.5,134.5,465.8,134.8,465.8,135.2"/>
	<path d="M465.8,138.4c0,0.3-0.3,0.6-0.6,0.6c-0.3,0-0.6-0.3-0.6-0.6s0.3-0.6,0.6-0.6C465.5,137.8,465.8,138.1,465.8,138.4"/>
	<path class="st24" d="M462.3,126.5h-12.6c-0.3,0-0.6,0.3-0.6,0.6v5.2c0,0.3,0.3,0.6,0.6,0.6h12.6c0.3,0,0.6-0.3,0.6-0.6v-5.2
		C462.9,126.8,462.6,126.5,462.3,126.5z"/>
</g>
<g id="messages_x5F_icon">
	<path class="st25" d="M523.3,78.3h-20.5c-1.6,0-3,1.3-3,3v14.5c0,1.6,1.3,3,3,3h11.8l4.8,5c0.2,0.2,0.4,0.3,0.7,0.3
		c0.1,0,0.2,0,0.4-0.1c0.4-0.2,0.6-0.5,0.6-0.9v-4.3h2.2c1.6,0,3-1.3,3-3V81.3C526.3,79.7,525,78.3,523.3,78.3z M525.3,95.8
		c0,1.1-0.9,2-2,2h-3.2v5.3l-5.1-5.3h-12.2c-1.1,0-2-0.9-2-2V81.3c0-1.1,0.9-2,2-2h20.5c1.1,0,2,0.9,2,2V95.8z"/>
	<path class="st25" d="M521.6,84.3h-17c-0.3,0-0.5,0.2-0.5,0.5s0.2,0.5,0.5,0.5h17c0.3,0,0.5-0.2,0.5-0.5S521.8,84.3,521.6,84.3z"/>
	<path class="st25" d="M521.6,87.8h-17c-0.3,0-0.5,0.2-0.5,0.5s0.2,0.5,0.5,0.5h17c0.3,0,0.5-0.2,0.5-0.5S521.8,87.8,521.6,87.8z"/>
	<path class="st25" d="M521.6,91.3h-17c-0.3,0-0.5,0.2-0.5,0.5s0.2,0.5,0.5,0.5h17c0.3,0,0.5-0.2,0.5-0.5S521.8,91.3,521.6,91.3z"/>
</g>
</svg>
