<?xml version="1.0" encoding="utf-8"?>
<!-- Generator: Adobe Illustrator 23.0.2, SVG Export Plug-In . SVG Version: 6.00 Build 0)  -->
<svg version="1.1" id="Capa_1" xmlns="http://www.w3.org/2000/svg" xmlns:xlink="http://www.w3.org/1999/xlink" x="0px" y="0px"
	 viewBox="0 0 34.01 22.01" style="enable-background:new 0 0 34.01 22.01;" xml:space="preserve">
<style type="text/css">
	.st0{fill:none;stroke:#13385D;stroke-miterlimit:10;}
	.st1{fill:#13385D;}
	.st2{fill:#FFFFFF;stroke:#E7E6E6;stroke-miterlimit:10;}
	.st3{fill:#FFFFFF;}
	.st4{fill:none;stroke:#8A8D8E;stroke-linecap:round;stroke-linejoin:round;stroke-miterlimit:10;}
	.st5{fill:#36373D;stroke:#36373D;stroke-miterlimit:10;}
	.st6{fill:none;stroke:#36373D;stroke-miterlimit:10;}
	.st7{fill:none;stroke:#36373D;stroke-linecap:round;stroke-linejoin:round;stroke-miterlimit:10;}
	.st8{fill:#313143;}
	.st9{fill:none;stroke:#313143;stroke-width:6;stroke-miterlimit:10;}
	.st10{fill:none;stroke:#313143;stroke-width:6;stroke-linecap:round;stroke-linejoin:round;stroke-miterlimit:10;}
	.st11{fill:none;stroke:#E0E0E1;stroke-width:2;stroke-miterlimit:10;}
	.st12{fill:#E7E7E9;}
	.st13{fill:none;stroke:#E0E0E1;stroke-width:2;stroke-linecap:round;stroke-linejoin:round;stroke-miterlimit:10;}
	.st14{fill:none;stroke:#36373D;stroke-width:2;stroke-miterlimit:10;}
	.st15{fill:#36373D;}
	.st16{fill:none;stroke:#36373D;stroke-width:2;stroke-linecap:round;stroke-linejoin:round;stroke-miterlimit:10;}
	.st17{fill:none;stroke:#36373D;stroke-width:3;stroke-linecap:round;stroke-linejoin:round;stroke-miterlimit:10;}
</style>
<g id="organigrama_1_">
	<path class="st7" d="M20.71,8h-7.79c-0.22,0-0.41-0.18-0.41-0.41V3.92c0-0.22,0.18-0.41,0.41-0.41h7.79c0.22,0,0.41,0.18,0.41,0.41
		V7.6C21.12,7.82,20.94,8,20.71,8z"/>
	<path class="st7" d="M14.51,18.5H6.72c-0.22,0-0.41-0.18-0.41-0.41v-3.68c0-0.22,0.18-0.41,0.41-0.41h7.79
		c0.22,0,0.41,0.18,0.41,0.41v3.68C14.92,18.32,14.74,18.5,14.51,18.5z"/>
	<path class="st7" d="M27.29,18.5H19.5c-0.22,0-0.41-0.18-0.41-0.41v-3.68c0-0.22,0.18-0.41,0.41-0.41h7.79
		c0.22,0,0.41,0.18,0.41,0.41v3.68C27.69,18.32,27.51,18.5,27.29,18.5z"/>
	<g>
		<polyline class="st7" points="16.82,9.5 16.82,11 10.62,11 10.62,12.51 		"/>
		<polyline class="st7" points="16.82,11 23.39,11 23.39,12.51 		"/>
	</g>
</g>
</svg>
