<?xml version="1.0" encoding="utf-8"?>
<!-- Generator: Adobe Illustrator 23.0.2, SVG Export Plug-In . SVG Version: 6.00 Build 0)  -->
<svg version="1.1" id="Capa_1" xmlns="http://www.w3.org/2000/svg" xmlns:xlink="http://www.w3.org/1999/xlink" x="0px" y="0px"
	 viewBox="0 0 37.6 25.38" style="enable-background:new 0 0 37.6 25.38;" xml:space="preserve">
<style type="text/css">
	.st0{fill:none;stroke:#13385D;stroke-miterlimit:10;}
	.st1{fill:#13385D;}
	.st2{fill:#FFFFFF;stroke:#E7E6E6;stroke-miterlimit:10;}
	.st3{fill:#FFFFFF;}
	.st4{fill:none;stroke:#8A8D8E;stroke-linecap:round;stroke-linejoin:round;stroke-miterlimit:10;}
	.st5{fill:#36373D;stroke:#36373D;stroke-miterlimit:10;}
	.st6{fill:none;stroke:#36373D;stroke-miterlimit:10;}
	.st7{fill:none;stroke:#36373D;stroke-linecap:round;stroke-linejoin:round;stroke-miterlimit:10;}
	.st8{fill:#313143;}
	.st9{fill:none;stroke:#313143;stroke-width:6;stroke-miterlimit:10;}
	.st10{fill:none;stroke:#313143;stroke-width:6;stroke-linecap:round;stroke-linejoin:round;stroke-miterlimit:10;}
	.st11{fill:none;stroke:#E0E0E1;stroke-width:2;stroke-miterlimit:10;}
	.st12{fill:#E7E7E9;}
	.st13{fill:none;stroke:#E0E0E1;stroke-width:2;stroke-linecap:round;stroke-linejoin:round;stroke-miterlimit:10;}
	.st14{fill:none;stroke:#36373D;stroke-width:2;stroke-miterlimit:10;}
	.st15{fill:#36373D;}
	.st16{fill:none;stroke:#36373D;stroke-width:2;stroke-linecap:round;stroke-linejoin:round;stroke-miterlimit:10;}
	.st17{fill:none;stroke:#36373D;stroke-width:3;stroke-linecap:round;stroke-linejoin:round;stroke-miterlimit:10;}
</style>
<g id="ojo_x5F_grey_2_">
	<circle class="st11" cx="18.8" cy="12.69" r="4.63"/>
	<circle class="st12" cx="18.8" cy="12.69" r="2.13"/>
	<path class="st13" d="M31.35,12.67L25.2,9.41c-2-1.06-4.19-1.59-6.39-1.59v0c0,0,0,0-0.01,0s0,0-0.01,0v0
		c-2.2,0-4.39,0.53-6.39,1.59l-6.15,3.25L6.2,12.69l0.05,0.03l6.15,3.25c2,1.06,4.19,1.59,6.39,1.59v0c0,0,0,0,0.01,0s0,0,0.01,0v0
		c2.2,0,4.39-0.53,6.39-1.59l6.15-3.25l0.05-0.03L31.35,12.67z"/>
</g>
</svg>
