<?xml version="1.0" encoding="utf-8"?>
<!-- Generator: Adobe Illustrator 23.0.3, SVG Export Plug-In . SVG Version: 6.00 Build 0)  -->
<svg version="1.1" id="Capa_1" xmlns="http://www.w3.org/2000/svg" xmlns:xlink="http://www.w3.org/1999/xlink" x="0px" y="0px"
	 viewBox="0 0 20.6 17.9" style="enable-background:new 0 0 20.6 17.9;" xml:space="preserve">
<style type="text/css">
	.st0{fill:none;stroke:#13385D;stroke-miterlimit:10;}
	.st1{fill:#13385D;}
	.st2{fill:#FFFFFF;stroke:#E7E6E6;stroke-miterlimit:10;}
	.st3{fill:#FFFFFF;}
	.st4{fill:none;stroke:#8A8D8E;stroke-linecap:round;stroke-linejoin:round;stroke-miterlimit:10;}
	.st5{fill:#36373D;stroke:#36373D;stroke-miterlimit:10;}
	.st6{fill:none;stroke:#36373D;stroke-miterlimit:10;}
	.st7{fill:none;stroke:#36373D;stroke-linecap:round;stroke-linejoin:round;stroke-miterlimit:10;}
	.st8{fill:#313143;}
	.st9{fill:none;stroke:#313143;stroke-width:6;stroke-miterlimit:10;}
	.st10{fill:none;stroke:#313143;stroke-width:6;stroke-linecap:round;stroke-linejoin:round;stroke-miterlimit:10;}
	.st11{fill:none;stroke:#E0E0E1;stroke-width:2;stroke-miterlimit:10;}
	.st12{fill:#E7E7E9;}
	.st13{fill:none;stroke:#E0E0E1;stroke-width:2;stroke-linecap:round;stroke-linejoin:round;stroke-miterlimit:10;}
	.st14{fill:none;stroke:#36373D;stroke-width:2;stroke-miterlimit:10;}
	.st15{fill:#36373D;}
	.st16{fill:none;stroke:#36373D;stroke-width:2;stroke-linecap:round;stroke-linejoin:round;stroke-miterlimit:10;}
	.st17{fill:none;stroke:#36373D;stroke-width:3;stroke-linecap:round;stroke-linejoin:round;stroke-miterlimit:10;}
	.st18{fill:none;stroke:#36363D;stroke-width:2;stroke-linecap:round;stroke-linejoin:round;stroke-miterlimit:10;}
	.st19{fill:#36363D;}
	.st20{fill:none;stroke:#36363D;stroke-linecap:round;stroke-linejoin:round;stroke-miterlimit:10;}
	.st21{fill:none;stroke:#36363D;stroke-linecap:round;stroke-miterlimit:10;}
	.st22{fill:none;stroke:#36363D;stroke-width:0.5;stroke-linecap:round;stroke-linejoin:round;stroke-miterlimit:10;}
	.st23{fill:none;stroke:#000000;stroke-width:0.5;stroke-linecap:round;stroke-linejoin:round;stroke-miterlimit:10;}
	.st24{fill:none;stroke:#000000;stroke-miterlimit:10;}
	.st25{fill:#04080F;}
	.st26{fill:none;stroke:#04080F;stroke-miterlimit:10;}
	.st27{fill:none;stroke:#04080F;stroke-linecap:round;stroke-miterlimit:10;}
</style>
<g>
	<g>
		<path class="st19" d="M10.3,17.1c-4.5,0-8.1-3.6-8.1-8.1s3.6-8.1,8.1-8.1s8.1,3.6,8.1,8.1S14.8,17.1,10.3,17.1z M10.3,1.5
			C6.2,1.5,2.8,4.8,2.8,9s3.3,7.5,7.5,7.5s7.5-3.3,7.5-7.5S14.4,1.5,10.3,1.5z"/>
		<g>
			<path class="st19" d="M9.7,5.9c0-0.2,0.1-0.4,0.2-0.5c0.1-0.1,0.3-0.2,0.5-0.2c0.2,0,0.4,0.1,0.5,0.2c0.1,0.1,0.2,0.3,0.2,0.5
				c0,0.2-0.1,0.3-0.2,0.5c-0.1,0.1-0.3,0.2-0.5,0.2c-0.2,0-0.4-0.1-0.5-0.2C9.7,6.3,9.7,6.1,9.7,5.9z M10.8,12.6H9.7V7.3h1.1V12.6z
				"/>
		</g>
	</g>
</g>
</svg>
