<?xml version="1.0" encoding="utf-8"?>
<!-- Generator: Adobe Illustrator 23.0.3, SVG Export Plug-In . SVG Version: 6.00 Build 0)  -->
<svg version="1.1" id="Capa_1" xmlns="http://www.w3.org/2000/svg" xmlns:xlink="http://www.w3.org/1999/xlink" x="0px" y="0px"
	 viewBox="0 0 30 28.9" style="enable-background:new 0 0 30 28.9;" xml:space="preserve">
<style type="text/css">
	.st0{fill:none;stroke:#13385D;stroke-miterlimit:10;}
	.st1{fill:#13385D;}
	.st2{fill:#FFFFFF;stroke:#E7E6E6;stroke-miterlimit:10;}
	.st3{fill:#FFFFFF;}
	.st4{fill:none;stroke:#8A8D8E;stroke-linecap:round;stroke-linejoin:round;stroke-miterlimit:10;}
	.st5{fill:#36373D;stroke:#36373D;stroke-miterlimit:10;}
	.st6{fill:none;stroke:#36373D;stroke-miterlimit:10;}
	.st7{fill:none;stroke:#36373D;stroke-linecap:round;stroke-linejoin:round;stroke-miterlimit:10;}
	.st8{fill:#313143;}
	.st9{fill:none;stroke:#313143;stroke-width:6;stroke-miterlimit:10;}
	.st10{fill:none;stroke:#313143;stroke-width:6;stroke-linecap:round;stroke-linejoin:round;stroke-miterlimit:10;}
	.st11{fill:none;stroke:#E0E0E1;stroke-width:2;stroke-miterlimit:10;}
	.st12{fill:#E7E7E9;}
	.st13{fill:none;stroke:#E0E0E1;stroke-width:2;stroke-linecap:round;stroke-linejoin:round;stroke-miterlimit:10;}
	.st14{fill:none;stroke:#36373D;stroke-width:2;stroke-miterlimit:10;}
	.st15{fill:#36373D;}
	.st16{fill:none;stroke:#36373D;stroke-width:2;stroke-linecap:round;stroke-linejoin:round;stroke-miterlimit:10;}
	.st17{fill:none;stroke:#36373D;stroke-width:3;stroke-linecap:round;stroke-linejoin:round;stroke-miterlimit:10;}
	.st18{fill:none;stroke:#36363D;stroke-width:2;stroke-linecap:round;stroke-linejoin:round;stroke-miterlimit:10;}
	.st19{fill:#36363D;}
	.st20{fill:none;stroke:#36363D;stroke-linecap:round;stroke-linejoin:round;stroke-miterlimit:10;}
	.st21{fill:none;stroke:#36363D;stroke-linecap:round;stroke-miterlimit:10;}
	.st22{fill:none;stroke:#36363D;stroke-width:0.5;stroke-linecap:round;stroke-linejoin:round;stroke-miterlimit:10;}
	.st23{fill:none;stroke:#000000;stroke-width:0.5;stroke-linecap:round;stroke-linejoin:round;stroke-miterlimit:10;}
	.st24{fill:none;stroke:#000000;stroke-miterlimit:10;}
	.st25{fill:#04080F;}
	.st26{fill:none;stroke:#04080F;stroke-miterlimit:10;}
	.st27{fill:none;stroke:#04080F;stroke-linecap:round;stroke-miterlimit:10;}
</style>
<g>
	<path d="M20.9,23.4h-12v-6.7h12V23.4z M21.2,15.8H8.6c-0.3,0-0.6,0.2-0.6,0.6v7.3c0,0.3,0.2,0.6,0.6,0.6h12.7
		c0.3,0,0.6-0.2,0.6-0.6v-7.3C21.8,16.1,21.6,15.8,21.2,15.8"/>
	<line class="st23" x1="9.5" y1="18.3" x2="20" y2="18.3"/>
	<line class="st23" x1="9.5" y1="19.8" x2="17.9" y2="19.8"/>
	<line class="st23" x1="9.5" y1="21.4" x2="20" y2="21.4"/>
	<path class="st24" d="M7.7,19.8H3.8c-0.1,0-0.2-0.1-0.2-0.3v-9c0-0.1,0.1-0.3,0.2-0.3H26c0.1,0,0.2,0.1,0.2,0.3V20
		c0,0.1-0.1,0.3-0.2,0.3h-3.8"/>
	<path d="M24.7,12.6c0,0.3-0.3,0.6-0.6,0.6c-0.3,0-0.6-0.3-0.6-0.6s0.3-0.6,0.6-0.6C24.4,11.9,24.7,12.2,24.7,12.6"/>
	<path d="M24.7,15.8c0,0.3-0.3,0.6-0.6,0.6c-0.3,0-0.6-0.3-0.6-0.6s0.3-0.6,0.6-0.6C24.4,15.2,24.7,15.5,24.7,15.8"/>
	<path class="st24" d="M21.2,4H8.6C8.3,4,8,4.2,8,4.5v5.2c0,0.3,0.3,0.6,0.6,0.6h12.6c0.3,0,0.6-0.3,0.6-0.6V4.5
		C21.8,4.2,21.5,4,21.2,4z"/>
</g>
</svg>
