<?xml version="1.0" encoding="utf-8"?>
<!-- Generator: Adobe Illustrator 23.0.2, SVG Export Plug-In . SVG Version: 6.00 Build 0)  -->
<svg version="1.1" id="Capa_1" xmlns="http://www.w3.org/2000/svg" xmlns:xlink="http://www.w3.org/1999/xlink" x="0px" y="0px"
	 viewBox="0 0 29.46 26.99" style="enable-background:new 0 0 29.46 26.99;" xml:space="preserve">
<style type="text/css">
	.st0{fill:none;stroke:#13385D;stroke-miterlimit:10;}
	.st1{fill:#13385D;}
	.st2{fill:#FFFFFF;stroke:#E7E6E6;stroke-miterlimit:10;}
	.st3{fill:#FFFFFF;}
	.st4{fill:none;stroke:#8A8D8E;stroke-linecap:round;stroke-linejoin:round;stroke-miterlimit:10;}
	.st5{fill:#36373D;stroke:#36373D;stroke-miterlimit:10;}
	.st6{fill:none;stroke:#36373D;stroke-miterlimit:10;}
	.st7{fill:none;stroke:#36373D;stroke-linecap:round;stroke-linejoin:round;stroke-miterlimit:10;}
	.st8{fill:#313143;}
	.st9{fill:none;stroke:#313143;stroke-width:6;stroke-miterlimit:10;}
	.st10{fill:none;stroke:#313143;stroke-width:6;stroke-linecap:round;stroke-linejoin:round;stroke-miterlimit:10;}
	.st11{fill:none;stroke:#E0E0E1;stroke-width:2;stroke-miterlimit:10;}
	.st12{fill:#E7E7E9;}
	.st13{fill:none;stroke:#E0E0E1;stroke-width:2;stroke-linecap:round;stroke-linejoin:round;stroke-miterlimit:10;}
	.st14{fill:none;stroke:#36373D;stroke-width:2;stroke-miterlimit:10;}
	.st15{fill:#36373D;}
	.st16{fill:none;stroke:#36373D;stroke-width:2;stroke-linecap:round;stroke-linejoin:round;stroke-miterlimit:10;}
	.st17{fill:none;stroke:#36373D;stroke-width:3;stroke-linecap:round;stroke-linejoin:round;stroke-miterlimit:10;}
</style>
<g id="candado_1_">
	<g>
		<path class="st15" d="M17.02,13.79c0-1.11-1.03-2.01-2.29-2.01c-1.26,0-2.29,0.9-2.29,2.01c0,0.79,0.51,1.47,1.26,1.8
			c0,0.03-0.01,0.05-0.01,0.08v4.22c0,0.5,0.46,0.91,1.04,0.91c0.57,0,1.04-0.41,1.04-0.91v-4.22c0-0.03-0.01-0.05-0.01-0.08
			C16.5,15.26,17.02,14.58,17.02,13.79z"/>
		<circle class="st16" cx="14.73" cy="16.61" r="8.85"/>
		<path class="st16" d="M10.61,8.84v-4.4c0-1.61,1.84-2.92,4.12-2.92h0c2.27,0,4.12,1.31,4.12,2.92v4.39"/>
	</g>
</g>
</svg>
