<svg id="Capa_1" data-name="Capa 1" xmlns="http://www.w3.org/2000/svg" viewBox="0 0 48 48"><defs><style>.cls-1,.cls-2{fill:none;stroke:#36363d;stroke-linecap:round;stroke-linejoin:round;}.cls-1{stroke-width:0.5px;}.cls-2{stroke-width:2px;}.cls-3{fill:#36363d;}</style></defs><title>inl</title><rect class="cls-1" x="10.64" y="19.97" width="5.08" height="0.68"/><rect class="cls-1" x="10.64" y="22.7" width="4.03" height="0.68"/><rect class="cls-1" x="10.64" y="25.42" width="3.8" height="0.68"/><rect class="cls-1" x="10.64" y="11.79" width="19.53" height="0.68"/><rect class="cls-1" x="10.64" y="14.52" width="19.53" height="0.68"/><rect class="cls-1" x="10.64" y="17.24" width="4.79" height="0.68"/><rect class="cls-1" x="10.64" y="28.15" width="3.8" height="0.68"/><rect class="cls-1" x="10.64" y="30.87" width="3.8" height="0.68"/><rect class="cls-1" x="10.64" y="33.6" width="6.22" height="0.68"/><rect class="cls-1" x="10.64" y="36.32" width="15.13" height="0.68"/><path class="cls-2" d="M6.71,7V39.21a.56.56,0,0,0,.56.56H28.62a.55.55,0,0,0,.37-.14l4.83-4.25A.55.55,0,0,0,34,35l0-28a.57.57,0,0,0-.57-.56l-26.15.1A.56.56,0,0,0,6.71,7Z"/><path class="cls-3" d="M28.51,39.8l0-4.29a.78.78,0,0,1,.78-.78l5-.13Z"/><path class="cls-3" d="M41.08,40.31l-10-10-.28.27-1.14-1.15a7.74,7.74,0,1,0-.58.66l1.11,1.1-.24.24,10,10a.72.72,0,0,0,1,0l.12-.13A.7.7,0,0,0,41.08,40.31ZM23.52,31.25a6.66,6.66,0,1,1,6.66-6.66A6.66,6.66,0,0,1,23.52,31.25Z"/></svg>