<svg id="Capa_1" data-name="Capa 1" xmlns="http://www.w3.org/2000/svg" viewBox="0 0 48 48"><defs><style>.cls-1{fill:none;stroke:#36363d;stroke-linecap:round;stroke-linejoin:round;stroke-width:2px;}.cls-2{fill:#36363d;}</style></defs><title>inl</title><path class="cls-1" d="M10.18,7.94V40.13a.56.56,0,0,0,.56.56H32.09a.55.55,0,0,0,.37-.14L37.3,36.3a.55.55,0,0,0,.19-.42l0-28a.56.56,0,0,0-.56-.56l-26.16.1A.56.56,0,0,0,10.18,7.94Z"/><path class="cls-2" d="M32,40.72l0-4.29a.77.77,0,0,1,.78-.77l5-.13Z"/><path class="cls-2" d="M23.84,11.28a2.5,2.5,0,1,0,2.5,2.5A2.49,2.49,0,0,0,23.84,11.28Zm0,4.17a1.67,1.67,0,1,1,1.66-1.67A1.67,1.67,0,0,1,23.84,15.45Z"/><path class="cls-2" d="M25.5,16.7h-.1l-.08,0a3.28,3.28,0,0,1-3,0l-.09,0h-.1a2.08,2.08,0,0,0-2.08,2.08v2.5a1.25,1.25,0,0,0,1.25,1.25h5a1.25,1.25,0,0,0,1.25-1.25v-2.5A2.09,2.09,0,0,0,25.5,16.7Zm1.25,4.58a.41.41,0,0,1-.41.42h-5a.42.42,0,0,1-.42-.42v-2.5a1.25,1.25,0,0,1,1.16-1.25,4.14,4.14,0,0,0,3.51,0,1.25,1.25,0,0,1,1.16,1.25Z"/><path class="cls-2" d="M29.59,23a2.5,2.5,0,1,0,2.5,2.5A2.49,2.49,0,0,0,29.59,23Zm0,4.17a1.67,1.67,0,1,1,1.66-1.67A1.67,1.67,0,0,1,29.59,27.2Z"/><path class="cls-2" d="M31.25,28.45h-.1l-.08,0a3.35,3.35,0,0,1-3,0l-.09,0h-.1a2.08,2.08,0,0,0-2.08,2.08V33a1.25,1.25,0,0,0,1.25,1.25h5A1.25,1.25,0,0,0,33.34,33v-2.5A2.09,2.09,0,0,0,31.25,28.45ZM32.5,33a.41.41,0,0,1-.41.42h-5a.42.42,0,0,1-.42-.42v-2.5a1.25,1.25,0,0,1,1.16-1.25,4.14,4.14,0,0,0,3.51,0,1.25,1.25,0,0,1,1.16,1.25Z"/><path class="cls-2" d="M18.09,23a2.5,2.5,0,1,0,2.5,2.5A2.49,2.49,0,0,0,18.09,23Zm0,4.17a1.67,1.67,0,1,1,1.66-1.67A1.67,1.67,0,0,1,18.09,27.2Z"/><path class="cls-2" d="M19.75,28.45h-.1l-.08,0a3.35,3.35,0,0,1-3,0l-.09,0h-.1a2.08,2.08,0,0,0-2.08,2.08V33a1.25,1.25,0,0,0,1.25,1.25h5A1.25,1.25,0,0,0,21.84,33v-2.5A2.09,2.09,0,0,0,19.75,28.45ZM21,33a.41.41,0,0,1-.41.42h-5a.42.42,0,0,1-.42-.42v-2.5a1.25,1.25,0,0,1,1.16-1.25,4.14,4.14,0,0,0,3.51,0A1.25,1.25,0,0,1,21,30.53Z"/></svg>