<svg id="Capa_1" data-name="Capa 1" xmlns="http://www.w3.org/2000/svg" viewBox="0 0 48 48"><defs><style>.cls-1,.cls-3,.cls-4,.cls-5{fill:none;stroke:#36363d;stroke-linecap:round;}.cls-1,.cls-3,.cls-5{stroke-linejoin:round;}.cls-1{stroke-width:2px;}.cls-2{fill:#36363d;}.cls-4{stroke-miterlimit:10;}.cls-5{stroke-width:0.5px;}</style></defs><title>inl</title><path class="cls-1" d="M10.18,7.94V40.13a.56.56,0,0,0,.56.56H32.09a.55.55,0,0,0,.37-.14L37.3,36.3a.55.55,0,0,0,.19-.42l0-28a.56.56,0,0,0-.56-.56l-26.16.1A.56.56,0,0,0,10.18,7.94Z"/><path class="cls-2" d="M32,40.72l0-4.29a.77.77,0,0,1,.78-.77l5-.13Z"/><rect class="cls-2" x="24.58" y="20.69" width="2.78" height="6.45"/><rect class="cls-2" x="27.92" y="18.8" width="2.78" height="8.34"/><rect class="cls-2" x="31.55" y="17.53" width="2.78" height="9.61"/><polyline class="cls-3" points="24.1 20.33 26.2 18.23 26.8 18.82 30.53 15.1 31.19 15.75 34.52 12.42 32.94 12.42"/><line class="cls-4" x1="34.52" y1="12.42" x2="34.52" y2="13.9"/><rect class="cls-5" x="13.68" y="24.22" width="8.56" height="0.68"/><rect class="cls-5" x="13.68" y="26.95" width="8.56" height="0.68"/><rect class="cls-5" x="13.68" y="29.67" width="8.06" height="0.68"/><rect class="cls-5" x="13.68" y="16.04" width="8.56" height="0.68"/><rect class="cls-5" x="13.68" y="18.77" width="8.56" height="0.68"/><rect class="cls-5" x="13.68" y="21.5" width="8.06" height="0.68"/><rect class="cls-5" x="13.68" y="32.4" width="17.86" height="0.68"/><rect class="cls-5" x="13.68" y="35.12" width="17.86" height="0.68"/></svg>