<?xml version="1.0" encoding="utf-8"?>
<!-- Generator: Adobe Illustrator 23.0.4, SVG Export Plug-In . SVG Version: 6.00 Build 0)  -->
<svg version="1.1" id="Capa_1" xmlns="http://www.w3.org/2000/svg" xmlns:xlink="http://www.w3.org/1999/xlink" x="0px" y="0px"
	 viewBox="0 0 117.1 113.4" style="enable-background:new 0 0 117.1 113.4;" xml:space="preserve">
<style type="text/css">
	.st0{fill:#0A1F30;}
	.st1{fill:none;stroke:#0A1F30;stroke-width:6;stroke-miterlimit:10;}
	.st2{fill:none;stroke:#0A1F30;stroke-width:6;stroke-linecap:round;stroke-miterlimit:10;}
	.st3{fill:#FFFFFF;}
	.st4{fill:none;stroke:#FFFFFF;stroke-width:3;stroke-miterlimit:10;}
	.st5{fill:none;stroke:#FFFFFF;stroke-width:3;stroke-linecap:round;stroke-miterlimit:10;}
	.st6{fill:none;stroke:#0A1F30;stroke-width:3;stroke-miterlimit:10;}
	.st7{fill:none;stroke:#0A1F30;stroke-width:3;stroke-linecap:round;stroke-miterlimit:10;}
</style>
<g>
	<g>
		<g>
			<path class="st3" d="M54.2,26.2c-16,0-29,13-29,29s13,29,29,29c5.9,0,11.4-1.8,16-4.8c-0.2,0-0.4,0.1-0.6,0.1
				c-2.3,0-4.1-1.9-4.1-4.1s1.9-4.1,4.1-4.1s4.1,1.9,4.1,4.1c0,0.6-0.1,1.1-0.3,1.6c6-5.3,9.8-13.1,9.8-21.7
				C83.3,39.2,70.3,26.2,54.2,26.2z M48.3,64.1c-7.5,0-13.6-6.1-13.6-13.6s6.1-13.6,13.6-13.6S61.9,43,61.9,50.5
				S55.8,64.1,48.3,64.1z"/>
		</g>
		<path class="st3" d="M111.1,102.2L94.6,85.8c6.7-8.6,10.7-19.4,10.7-31.1c0-27.9-22.7-50.6-50.6-50.6C26.9,4.1,4.2,26.8,4.2,54.7
			c0,27.9,22.7,50.6,50.6,50.6c14,0,26.7-5.7,35.9-15l16.2,16.2c0.6,0.6,1.4,0.9,2.1,0.9s1.5-0.3,2.1-0.9
			C112.3,105.3,112.3,103.4,111.1,102.2z M54.8,99.3c-24.6,0-44.6-20-44.6-44.6s20-44.6,44.6-44.6s44.6,20,44.6,44.6
			S79.4,99.3,54.8,99.3z"/>
	</g>
</g>
</svg>
