<svg id="Capa_1" data-name="Capa 1" xmlns="http://www.w3.org/2000/svg" viewBox="0 0 606.67 159.45"><defs><style>.cls-1{fill:#0a1f30;}.cls-2,.cls-3{fill:none;stroke:#0a1f30;stroke-miterlimit:10;stroke-width:6px;}.cls-3{stroke-linecap:round;}</style></defs><title>logo_herramienta</title><path class="cls-1" d="M182.88,71.15h-3.31V63.36h-4.36v7.79h-3.3V53.39h3.3v7.06h4.36V53.39h3.31Z"/><path class="cls-1" d="M190.81,71.39a4.87,4.87,0,0,1-4-1.8,7.91,7.91,0,0,1-1.47-5.11,9,9,0,0,1,1.33-5.24,4.57,4.57,0,0,1,7.18-.27,7.1,7.1,0,0,1,1.27,4.51v1.73h-6.5a4.47,4.47,0,0,0,.74,2.69,2.38,2.38,0,0,0,1.95.88,6.27,6.27,0,0,0,3.23-1v2.66A7.05,7.05,0,0,1,190.81,71.39Zm-.48-11.54a1.33,1.33,0,0,0-1.14.73,5,5,0,0,0-.52,2.28H192a4.85,4.85,0,0,0-.45-2.24A1.3,1.3,0,0,0,190.33,59.85Z"/><path class="cls-1" d="M203,57.36a3.91,3.91,0,0,1,1.17.18l-.38,3.14a2.7,2.7,0,0,0-.89-.13,2.06,2.06,0,0,0-1.81.93,4.82,4.82,0,0,0-.63,2.71v7h-3.23V57.62h2.66l.36,2.11h.11a4.92,4.92,0,0,1,1.17-1.82A2.15,2.15,0,0,1,203,57.36Z"/><path class="cls-1" d="M211.41,57.36a3.86,3.86,0,0,1,1.17.18l-.38,3.14a2.7,2.7,0,0,0-.89-.13,2.06,2.06,0,0,0-1.81.93,4.82,4.82,0,0,0-.63,2.71v7h-3.23V57.62h2.66l.37,2.11h.1a4.92,4.92,0,0,1,1.17-1.82A2.15,2.15,0,0,1,211.41,57.36Z"/><path class="cls-1" d="M220.65,71.15,220,69.3h-.07a4.66,4.66,0,0,1-1.49,1.64,3.75,3.75,0,0,1-1.93.45,2.79,2.79,0,0,1-2.35-1.12,5,5,0,0,1-.85-3.11A4,4,0,0,1,214.49,64a5.49,5.49,0,0,1,3.5-1.15l1.8-.07v-1c0-1.26-.55-1.89-1.64-1.89a5.51,5.51,0,0,0-2.79,1l-1.12-2.24a8,8,0,0,1,4.38-1.27,4.22,4.22,0,0,1,3.28,1.23A5,5,0,0,1,223,62.06v9.09Zm-2.8-2.29a1.61,1.61,0,0,0,1.41-.79,3.8,3.8,0,0,0,.53-2.12V64.81l-1,0a2.33,2.33,0,0,0-1.62.64,2.47,2.47,0,0,0-.51,1.7C216.66,68.3,217.05,68.86,217.85,68.86Z"/><path class="cls-1" d="M239.07,71.15V63.08q0-3-1.47-3a1.56,1.56,0,0,0-1.53,1.06,9.14,9.14,0,0,0-.46,3.41v6.57h-3.26V63.08c0-2-.5-3-1.49-3a1.57,1.57,0,0,0-1.52,1,9.16,9.16,0,0,0-.48,3.49v6.5h-3.23V57.62h2.57l.38,1.73h.21a3.31,3.31,0,0,1,1.33-1.51,3.6,3.6,0,0,1,1.8-.48,3.22,3.22,0,0,1,3.31,2.34h.12a3.45,3.45,0,0,1,3.32-2.34,3.17,3.17,0,0,1,2.72,1.26,6.22,6.22,0,0,1,.93,3.7v8.83Z"/><path class="cls-1" d="M244.83,54.08a1.72,1.72,0,0,1,.46-1.27,1.78,1.78,0,0,1,1.31-.47,1.72,1.72,0,0,1,1.26.47,1.95,1.95,0,0,1,0,2.55,1.72,1.72,0,0,1-1.25.46,1.77,1.77,0,0,1-1.29-.46A1.67,1.67,0,0,1,244.83,54.08Zm3.36,17.07H245V57.62h3.23Z"/><path class="cls-1" d="M256,71.39a4.87,4.87,0,0,1-4-1.8,7.91,7.91,0,0,1-1.47-5.11,9,9,0,0,1,1.33-5.24A4.57,4.57,0,0,1,259,59a7.1,7.1,0,0,1,1.27,4.51v1.73h-6.5a4.54,4.54,0,0,0,.74,2.69,2.38,2.38,0,0,0,1.95.88,6.27,6.27,0,0,0,3.23-1v2.66A7.05,7.05,0,0,1,256,71.39Zm-.47-11.54a1.35,1.35,0,0,0-1.15.73,5.14,5.14,0,0,0-.52,2.28h3.28a4.73,4.73,0,0,0-.45-2.24A1.29,1.29,0,0,0,255.48,59.85Z"/><path class="cls-1" d="M269.14,71.15V63.08a5.52,5.52,0,0,0-.35-2.22,1.19,1.19,0,0,0-1.14-.75,1.59,1.59,0,0,0-1.53,1,8.9,8.9,0,0,0-.49,3.51v6.5H262.4V57.62H265l.39,1.73h.21a3.35,3.35,0,0,1,3.16-2,3.19,3.19,0,0,1,2.76,1.26,6.29,6.29,0,0,1,.92,3.7v8.83Z"/><path class="cls-1" d="M279.71,68.66a3.89,3.89,0,0,0,1.47-.34v2.52a4.15,4.15,0,0,1-2.37.55,3.17,3.17,0,0,1-2.61-1,4.91,4.91,0,0,1-.85-3.15v-7H274V58.73l1.69-1.16.82-2.87h2.07v2.92h2.45v2.56h-2.45V67.3C278.62,68.2,279,68.66,279.71,68.66Z"/><path class="cls-1" d="M289.71,71.15l-.65-1.85H289a4.64,4.64,0,0,1-1.48,1.64,3.78,3.78,0,0,1-1.93.45,2.78,2.78,0,0,1-2.35-1.12,5,5,0,0,1-.86-3.11A4,4,0,0,1,283.54,64a5.5,5.5,0,0,1,3.51-1.15l1.79-.07v-1c0-1.26-.54-1.89-1.64-1.89a5.51,5.51,0,0,0-2.79,1l-1.12-2.24a8.07,8.07,0,0,1,4.39-1.27A4.21,4.21,0,0,1,291,58.57a5,5,0,0,1,1.13,3.49v9.09Zm-2.81-2.29a1.64,1.64,0,0,0,1.42-.79,3.8,3.8,0,0,0,.52-2.12V64.81l-1,0a2.29,2.29,0,0,0-1.62.64,2.42,2.42,0,0,0-.52,1.7C285.71,68.3,286.11,68.86,286.9,68.86Z"/><path class="cls-1" d="M304.39,71.39a3.31,3.31,0,0,1-2.95-1.85,10.2,10.2,0,0,1-1.08-5.13,10.53,10.53,0,0,1,1.06-5.18,3.21,3.21,0,0,1,2.91-1.87,2.74,2.74,0,0,1,1.6.46,4.07,4.07,0,0,1,1.24,1.53h.2q-.15-1.85-.15-2.58V52.25h3.23v18.9h-2.4l-.55-1.76h-.11A3.25,3.25,0,0,1,304.39,71.39Zm1.05-2.73a1.39,1.39,0,0,0,1.31-.82,7.92,7.92,0,0,0,.45-3v-.42a9.17,9.17,0,0,0-.42-3.32,1.42,1.42,0,0,0-1.38-1c-.6,0-1,.37-1.31,1.1a9.77,9.77,0,0,0-.4,3.2,9.3,9.3,0,0,0,.41,3.16A1.41,1.41,0,0,0,305.44,68.66Z"/><path class="cls-1" d="M318.17,71.39a4.89,4.89,0,0,1-4-1.8,8,8,0,0,1-1.46-5.11A9,9,0,0,1,314,59.24a4.29,4.29,0,0,1,3.7-1.88A4.21,4.21,0,0,1,321.2,59a7.1,7.1,0,0,1,1.28,4.51v1.73H316a4.4,4.4,0,0,0,.74,2.69,2.37,2.37,0,0,0,1.94.88,6.3,6.3,0,0,0,3.24-1v2.66A7.05,7.05,0,0,1,318.17,71.39Zm-.48-11.54a1.33,1.33,0,0,0-1.14.73,5,5,0,0,0-.52,2.28h3.28a5,5,0,0,0-.45-2.24A1.3,1.3,0,0,0,317.69,59.85Z"/><path class="cls-1" d="M337.3,71.15,333.92,56h-.13a25.48,25.48,0,0,1,.23,3.21V71.15H331V53.39H336l3,14h.1l3-14h5.15V71.15H344.2v-12a26.64,26.64,0,0,1,.17-3.06h-.1l-3.36,15.1Z"/><path class="cls-1" d="M356.9,71.15l-.64-1.85h-.07a4.66,4.66,0,0,1-1.49,1.64,3.75,3.75,0,0,1-1.93.45,2.79,2.79,0,0,1-2.35-1.12,5,5,0,0,1-.85-3.11A4,4,0,0,1,350.74,64a5.49,5.49,0,0,1,3.5-1.15l1.8-.07v-1c0-1.26-.55-1.89-1.64-1.89a5.51,5.51,0,0,0-2.79,1l-1.12-2.24a8,8,0,0,1,4.38-1.27,4.22,4.22,0,0,1,3.28,1.23,5,5,0,0,1,1.12,3.49v9.09Zm-2.8-2.29a1.61,1.61,0,0,0,1.41-.79A3.8,3.8,0,0,0,356,66V64.81l-1,0a2.33,2.33,0,0,0-1.62.64,2.47,2.47,0,0,0-.51,1.7C352.91,68.3,353.3,68.86,354.1,68.86Z"/><path class="cls-1" d="M367.92,71.39a3,3,0,0,1-1.55-.4,3.69,3.69,0,0,1-1.26-1.39h-.17c.13,1.11.2,1.77.2,2v5.52h-3.26V57.62h2.5l.56,1.76h.15a3.16,3.16,0,0,1,2.93-2,3.21,3.21,0,0,1,2.89,1.83,10.6,10.6,0,0,1,1,5.17,10.37,10.37,0,0,1-1.08,5.16A3.28,3.28,0,0,1,367.92,71.39Zm-1-11.28a1.4,1.4,0,0,0-1.36.88,7.55,7.55,0,0,0-.45,2.92v.42a9,9,0,0,0,.43,3.26,1.45,1.45,0,0,0,1.41,1c1.13,0,1.7-1.44,1.7-4.3a9,9,0,0,0-.42-3.16A1.39,1.39,0,0,0,366.92,60.11Z"/><path class="cls-1" d="M379.21,71.39a4.89,4.89,0,0,1-4-1.8,8,8,0,0,1-1.46-5.11,9,9,0,0,1,1.32-5.24,4.29,4.29,0,0,1,3.7-1.88A4.21,4.21,0,0,1,382.25,59a7.1,7.1,0,0,1,1.28,4.51v1.73H377a4.4,4.4,0,0,0,.74,2.69,2.37,2.37,0,0,0,1.94.88,6.24,6.24,0,0,0,3.23-1v2.66A7,7,0,0,1,379.21,71.39Zm-.47-11.54a1.33,1.33,0,0,0-1.14.73,5,5,0,0,0-.52,2.28h3.28a5,5,0,0,0-.45-2.24A1.31,1.31,0,0,0,378.74,59.85Z"/><path class="cls-1" d="M395.69,64.36a8.39,8.39,0,0,1-1.41,5.18,4.92,4.92,0,0,1-6.61,1,5.34,5.34,0,0,1-1.83-2.45,9.91,9.91,0,0,1-.65-3.73,8.4,8.4,0,0,1,1.4-5.15,4.58,4.58,0,0,1,3.87-1.85,4.51,4.51,0,0,1,3.81,1.89A8.35,8.35,0,0,1,395.69,64.36Zm-7.19,0a8.43,8.43,0,0,0,.46,3.19,1.54,1.54,0,0,0,1.48,1.08q1.94,0,1.94-4.27a8.27,8.27,0,0,0-.46-3.18,1.56,1.56,0,0,0-1.48-1,1.53,1.53,0,0,0-1.48,1A8.27,8.27,0,0,0,388.5,64.36Z"/><path class="cls-1" d="M407.66,71.39a3.31,3.31,0,0,1-3-1.85,10.2,10.2,0,0,1-1.08-5.13,10.53,10.53,0,0,1,1.06-5.18,3.21,3.21,0,0,1,2.91-1.87,2.74,2.74,0,0,1,1.6.46,4.07,4.07,0,0,1,1.24,1.53h.2q-.15-1.85-.15-2.58V52.25h3.23v18.9h-2.4l-.55-1.76h-.11A3.25,3.25,0,0,1,407.66,71.39Zm1-2.73a1.39,1.39,0,0,0,1.31-.82,7.92,7.92,0,0,0,.45-3v-.42a9.17,9.17,0,0,0-.42-3.32,1.42,1.42,0,0,0-1.38-1c-.6,0-1,.37-1.3,1.1a9.47,9.47,0,0,0-.41,3.2,9.3,9.3,0,0,0,.41,3.16A1.41,1.41,0,0,0,408.71,68.66Z"/><path class="cls-1" d="M421.44,71.39a4.89,4.89,0,0,1-4-1.8A8,8,0,0,1,416,64.48a9,9,0,0,1,1.32-5.24,4.29,4.29,0,0,1,3.7-1.88A4.21,4.21,0,0,1,424.47,59a7.1,7.1,0,0,1,1.28,4.51v1.73h-6.5A4.47,4.47,0,0,0,420,67.9a2.37,2.37,0,0,0,1.94.88,6.3,6.3,0,0,0,3.24-1v2.66A7.05,7.05,0,0,1,421.44,71.39ZM421,59.85a1.33,1.33,0,0,0-1.14.73,5,5,0,0,0-.52,2.28h3.28a5,5,0,0,0-.45-2.24A1.3,1.3,0,0,0,421,59.85Z"/><path class="cls-1" d="M445.52,62.1c0,2.93-.59,5.17-1.79,6.72a6.11,6.11,0,0,1-5.15,2.33h-4.35V53.39H439a5.69,5.69,0,0,1,4.82,2.29A10.45,10.45,0,0,1,445.52,62.1Zm-3.38.09c0-4-1.1-5.95-3.28-5.95h-1.33v12h1.07a2.86,2.86,0,0,0,2.67-1.52A9.32,9.32,0,0,0,442.14,62.19Z"/><path class="cls-1" d="M452.91,71.39a4.87,4.87,0,0,1-4-1.8,7.91,7.91,0,0,1-1.47-5.11,9,9,0,0,1,1.33-5.24A4.57,4.57,0,0,1,456,59a7.1,7.1,0,0,1,1.27,4.51v1.73h-6.5a4.47,4.47,0,0,0,.74,2.69,2.38,2.38,0,0,0,2,.88,6.27,6.27,0,0,0,3.23-1v2.66A7.05,7.05,0,0,1,452.91,71.39Zm-.47-11.54a1.33,1.33,0,0,0-1.15.73,5,5,0,0,0-.52,2.28h3.28a4.73,4.73,0,0,0-.45-2.24A1.29,1.29,0,0,0,452.44,59.85Z"/><path class="cls-1" d="M463.83,71.39a4.25,4.25,0,0,1-3.68-1.76,8.88,8.88,0,0,1-1.26-5.18,9.65,9.65,0,0,1,1.19-5.33,4.17,4.17,0,0,1,3.7-1.76,6,6,0,0,1,1.58.22,5.33,5.33,0,0,1,1.48.63l-.92,2.52a3.61,3.61,0,0,0-1.79-.6,1.54,1.54,0,0,0-1.48,1.07,8.6,8.6,0,0,0-.46,3.23,8.31,8.31,0,0,0,.45,3.14,1.53,1.53,0,0,0,1.47,1,4.8,4.8,0,0,0,2.54-.85V70.6A5.22,5.22,0,0,1,463.83,71.39Z"/><path class="cls-1" d="M468.48,54.08a1.73,1.73,0,0,1,.47-1.27,1.77,1.77,0,0,1,1.3-.47A1.62,1.62,0,0,1,472,54.08a1.67,1.67,0,0,1-.48,1.28,2,2,0,0,1-2.54,0A1.64,1.64,0,0,1,468.48,54.08Zm3.37,17.07h-3.23V57.62h3.23Z"/><path class="cls-1" d="M481.88,67.19a4.09,4.09,0,0,1-1.16,3.09,4.76,4.76,0,0,1-3.42,1.11A6.33,6.33,0,0,1,474,70.6V67.79a6.3,6.3,0,0,0,1.56.77,5.06,5.06,0,0,0,1.58.3,1.62,1.62,0,0,0,1.15-.37,1.27,1.27,0,0,0,.39-1,1.6,1.6,0,0,0-.41-1.08,7.54,7.54,0,0,0-1.52-1.13,6.25,6.25,0,0,1-2.11-1.86A4.27,4.27,0,0,1,474,61.1a3.4,3.4,0,0,1,1.19-2.73,4.86,4.86,0,0,1,3.25-1,6.53,6.53,0,0,1,3.39,1l-1.06,2.32a5,5,0,0,0-2.28-.71,1.2,1.2,0,0,0-.93.33,1.12,1.12,0,0,0-.31.8,1.37,1.37,0,0,0,.38,1A6.51,6.51,0,0,0,479,63.08a9,9,0,0,1,1.77,1.3,3.94,3.94,0,0,1,.79,1.22A4.07,4.07,0,0,1,481.88,67.19Z"/><path class="cls-1" d="M483.81,54.08a1.73,1.73,0,0,1,.47-1.27,2,2,0,0,1,2.57,0,1.73,1.73,0,0,1,.47,1.27,1.64,1.64,0,0,1-.49,1.28,1.72,1.72,0,0,1-1.25.46,1.76,1.76,0,0,1-1.28-.46A1.64,1.64,0,0,1,483.81,54.08Zm3.36,17.07h-3.23V57.62h3.23Z"/><path class="cls-1" d="M500,64.36a8.39,8.39,0,0,1-1.4,5.18,4.92,4.92,0,0,1-6.61,1,5.35,5.35,0,0,1-1.84-2.45,9.91,9.91,0,0,1-.64-3.73,8.4,8.4,0,0,1,1.4-5.15,4.58,4.58,0,0,1,3.87-1.85,4.51,4.51,0,0,1,3.81,1.89A8.35,8.35,0,0,1,500,64.36Zm-7.19,0a8.4,8.4,0,0,0,.47,3.19,1.54,1.54,0,0,0,1.48,1.08q1.93,0,1.94-4.27a8.24,8.24,0,0,0-.47-3.18,1.56,1.56,0,0,0-2.95,0A8.24,8.24,0,0,0,492.77,64.36Z"/><path class="cls-1" d="M509,71.15V63.08a5.32,5.32,0,0,0-.36-2.22,1.17,1.17,0,0,0-1.14-.75,1.61,1.61,0,0,0-1.53,1,9.14,9.14,0,0,0-.48,3.51v6.5h-3.23V57.62h2.56l.39,1.73h.2a3.51,3.51,0,0,1,1.25-1.46,3.47,3.47,0,0,1,1.91-.53,3.22,3.22,0,0,1,2.77,1.26,6.3,6.3,0,0,1,.91,3.7v8.83Z"/><path class="cls-1" d="M519.84,71.39a4.89,4.89,0,0,1-4-1.8,8,8,0,0,1-1.46-5.11,9,9,0,0,1,1.32-5.24,4.29,4.29,0,0,1,3.7-1.88A4.21,4.21,0,0,1,522.87,59a7.1,7.1,0,0,1,1.28,4.51v1.73h-6.5a4.4,4.4,0,0,0,.74,2.69,2.37,2.37,0,0,0,1.94.88,6.3,6.3,0,0,0,3.24-1v2.66A7.05,7.05,0,0,1,519.84,71.39Zm-.48-11.54a1.33,1.33,0,0,0-1.14.73,5,5,0,0,0-.52,2.28H521a5,5,0,0,0-.45-2.24A1.3,1.3,0,0,0,519.36,59.85Z"/><path class="cls-1" d="M533.55,67.19a4.09,4.09,0,0,1-1.16,3.09A4.76,4.76,0,0,1,529,71.39a6.26,6.26,0,0,1-3.31-.79V67.79a6,6,0,0,0,1.56.77,5,5,0,0,0,1.57.3,1.62,1.62,0,0,0,1.15-.37,1.27,1.27,0,0,0,.39-1,1.6,1.6,0,0,0-.41-1.08,7.54,7.54,0,0,0-1.52-1.13,6.25,6.25,0,0,1-2.11-1.86,4.27,4.27,0,0,1-.63-2.34,3.39,3.39,0,0,1,1.18-2.73,4.86,4.86,0,0,1,3.25-1,6.53,6.53,0,0,1,3.39,1l-1.06,2.32a5,5,0,0,0-2.28-.71,1.2,1.2,0,0,0-.93.33,1.12,1.12,0,0,0-.31.8,1.41,1.41,0,0,0,.38,1,6.51,6.51,0,0,0,1.43,1.06,9,9,0,0,1,1.77,1.3,3.94,3.94,0,0,1,.79,1.22A4.07,4.07,0,0,1,533.55,67.19Z"/><path class="cls-1" d="M545.3,71.39a3.31,3.31,0,0,1-3-1.85,10.2,10.2,0,0,1-1.08-5.13,10.64,10.64,0,0,1,1.06-5.18,3.23,3.23,0,0,1,2.92-1.87,2.73,2.73,0,0,1,1.59.46,4.08,4.08,0,0,1,1.25,1.53h.19c-.1-1.23-.14-2.09-.14-2.58V52.25h3.23v18.9H549l-.54-1.76h-.11A3.25,3.25,0,0,1,545.3,71.39Zm1-2.73a1.38,1.38,0,0,0,1.31-.82,7.53,7.53,0,0,0,.45-3v-.42a9.17,9.17,0,0,0-.42-3.32,1.42,1.42,0,0,0-1.38-1c-.6,0-1,.37-1.3,1.1a9.73,9.73,0,0,0-.41,3.2,9.3,9.3,0,0,0,.41,3.16A1.41,1.41,0,0,0,546.34,68.66Z"/><path class="cls-1" d="M559.07,71.39a4.87,4.87,0,0,1-4-1.8,7.91,7.91,0,0,1-1.47-5.11,9,9,0,0,1,1.33-5.24,4.57,4.57,0,0,1,7.18-.27,7.1,7.1,0,0,1,1.27,4.51v1.73h-6.5a4.47,4.47,0,0,0,.74,2.69,2.38,2.38,0,0,0,2,.88,6.27,6.27,0,0,0,3.23-1v2.66A7.05,7.05,0,0,1,559.07,71.39Zm-.47-11.54a1.33,1.33,0,0,0-1.15.73,5,5,0,0,0-.52,2.28h3.28a4.73,4.73,0,0,0-.45-2.24A1.29,1.29,0,0,0,558.6,59.85Z"/><path class="cls-1" d="M183.64,102.8l-1.36-6h-6.17l-1.36,6h-4.41L176.21,79h6l5.88,23.78Zm-2.19-9.88-1.26-5.51q-.12-.5-.51-2.52c-.26-1.34-.42-2.24-.48-2.69-.14.93-.32,2-.53,3.07s-.78,3.66-1.69,7.65Z"/><path class="cls-1" d="M202.88,84.79v2.53l-2.15.48a5.83,5.83,0,0,1,.63,2.85,6.21,6.21,0,0,1-1.56,4.49,5.72,5.72,0,0,1-4.34,1.62,4.32,4.32,0,0,1-1.2-.13,5.62,5.62,0,0,0-.58.61,1.32,1.32,0,0,0-.27.84q0,1.14,2,1.14H198a4.79,4.79,0,0,1,3.54,1.24,5,5,0,0,1,1.24,3.73,5.9,5.9,0,0,1-2.11,4.86,9.38,9.38,0,0,1-6,1.72,7.2,7.2,0,0,1-4.62-1.31,4.49,4.49,0,0,1-1.62-3.71,4.06,4.06,0,0,1,.93-2.65,5.13,5.13,0,0,1,2.55-1.66,3.1,3.1,0,0,1-1.35-1,2.5,2.5,0,0,1-.52-1.58,2.87,2.87,0,0,1,.16-1,3.13,3.13,0,0,1,.46-.84,8.75,8.75,0,0,1,1.22-1.18A4.6,4.6,0,0,1,190,93.74a7.23,7.23,0,0,1-.65-3.12A6.36,6.36,0,0,1,190.94,86a5.89,5.89,0,0,1,4.46-1.62,7.79,7.79,0,0,1,1.26.12,6.94,6.94,0,0,1,1.09.25Zm-10.61,20.63a2.1,2.1,0,0,0,.67,1.65,2.89,2.89,0,0,0,1.92.57,4.86,4.86,0,0,0,2.94-.74,2.42,2.42,0,0,0,1-2.05,1.74,1.74,0,0,0-.52-1.44,3.34,3.34,0,0,0-2-.42H194.2a1.7,1.7,0,0,0-1.4.66A2.77,2.77,0,0,0,192.27,105.42Zm1.33-14.77c0,2.13.6,3.19,1.8,3.19s1.75-1.07,1.75-3.22-.59-3.3-1.75-3.3S193.6,88.43,193.6,90.65Z"/><path class="cls-1" d="M211.71,103.12a6.51,6.51,0,0,1-5.34-2.4,10.58,10.58,0,0,1-2-6.81,12,12,0,0,1,1.76-7,5.68,5.68,0,0,1,4.93-2.51,5.59,5.59,0,0,1,4.64,2.14,9.44,9.44,0,0,1,1.71,6v2.3h-8.67a5.86,5.86,0,0,0,1,3.59,3.14,3.14,0,0,0,2.59,1.17,8.46,8.46,0,0,0,4.31-1.31v3.54A9.38,9.38,0,0,1,211.71,103.12Zm-.64-15.38a1.75,1.75,0,0,0-1.52,1,6.5,6.5,0,0,0-.69,3h4.37a6.48,6.48,0,0,0-.6-3A1.73,1.73,0,0,0,211.07,87.74Z"/><path class="cls-1" d="M229.29,102.8V92a7.15,7.15,0,0,0-.47-3,1.57,1.57,0,0,0-1.52-1,2.13,2.13,0,0,0-2,1.38,12,12,0,0,0-.65,4.67v8.67h-4.3v-18h3.41l.52,2.31h.28a4.42,4.42,0,0,1,4.21-2.65,4.25,4.25,0,0,1,3.68,1.68A8.27,8.27,0,0,1,233.63,91V102.8Z"/><path class="cls-1" d="M243.38,99.48a4.84,4.84,0,0,0,2-.46v3.37a5.51,5.51,0,0,1-3.15.73,4.24,4.24,0,0,1-3.49-1.4,6.6,6.6,0,0,1-1.13-4.2V88.17h-1.75V86.25l2.25-1.56,1.1-3.82h2.76v3.89h3.27v3.41h-3.27v9.49C241.93,98.87,242.41,99.48,243.38,99.48Z"/><path class="cls-1" d="M254.53,103.12a6.51,6.51,0,0,1-5.34-2.4,10.58,10.58,0,0,1-1.95-6.81,12,12,0,0,1,1.76-7,6.11,6.11,0,0,1,9.58-.37,9.5,9.5,0,0,1,1.7,6v2.3h-8.67a5.86,5.86,0,0,0,1,3.59,3.14,3.14,0,0,0,2.59,1.17,8.46,8.46,0,0,0,4.31-1.31v3.54A9.38,9.38,0,0,1,254.53,103.12Zm-.64-15.38a1.75,1.75,0,0,0-1.52,1,6.5,6.5,0,0,0-.69,3h4.37a6.48,6.48,0,0,0-.6-3A1.73,1.73,0,0,0,253.89,87.74Z"/><path class="cls-1" d="M272.81,97.52a5.44,5.44,0,0,1-1.55,4.12,6.33,6.33,0,0,1-4.55,1.48,8.5,8.5,0,0,1-4.43-1.05V98.33a8.47,8.47,0,0,0,2.09,1,6.58,6.58,0,0,0,2.09.4,2.15,2.15,0,0,0,1.53-.49,1.7,1.7,0,0,0,.53-1.3,2.13,2.13,0,0,0-.55-1.45,9.23,9.23,0,0,0-2-1.5,8.44,8.44,0,0,1-2.81-2.49,5.69,5.69,0,0,1-.85-3.12,4.55,4.55,0,0,1,1.58-3.64,6.48,6.48,0,0,1,4.34-1.34,8.68,8.68,0,0,1,4.51,1.26l-1.41,3.09a6.65,6.65,0,0,0-3-.94,1.64,1.64,0,0,0-1.24.44,1.52,1.52,0,0,0-.41,1.07,1.89,1.89,0,0,0,.51,1.3A9.13,9.13,0,0,0,269,92a12.26,12.26,0,0,1,2.37,1.74,5.14,5.14,0,0,1,1.05,1.62A5.5,5.5,0,0,1,272.81,97.52Z"/><path class="cls-1" d="M288.47,103.12a4.39,4.39,0,0,1-3.93-2.46,13.5,13.5,0,0,1-1.45-6.85,14.09,14.09,0,0,1,1.41-6.9,4.32,4.32,0,0,1,3.89-2.49,3.75,3.75,0,0,1,2.13.6,5.59,5.59,0,0,1,1.66,2h.26c-.13-1.64-.2-2.79-.2-3.45v-6h4.31v25.2h-3.2l-.73-2.35h-.15A4.33,4.33,0,0,1,288.47,103.12Zm1.39-3.64a1.83,1.83,0,0,0,1.75-1.1,10.06,10.06,0,0,0,.6-4v-.57a12,12,0,0,0-.56-4.42,1.89,1.89,0,0,0-1.83-1.28c-.8,0-1.38.49-1.75,1.47a12.91,12.91,0,0,0-.54,4.26,12.13,12.13,0,0,0,.55,4.21A1.88,1.88,0,0,0,289.86,99.48Z"/><path class="cls-1" d="M306.84,103.12a6.51,6.51,0,0,1-5.34-2.4,10.58,10.58,0,0,1-1.95-6.81,12,12,0,0,1,1.76-7,5.68,5.68,0,0,1,4.93-2.51,5.59,5.59,0,0,1,4.64,2.14,9.44,9.44,0,0,1,1.7,6v2.3h-8.66a5.86,5.86,0,0,0,1,3.59,3.14,3.14,0,0,0,2.59,1.17,8.46,8.46,0,0,0,4.31-1.31v3.54A9.38,9.38,0,0,1,306.84,103.12Zm-.64-15.38a1.75,1.75,0,0,0-1.52,1,6.5,6.5,0,0,0-.69,3h4.37a6.48,6.48,0,0,0-.6-3A1.73,1.73,0,0,0,306.2,87.74Z"/><path class="cls-1" d="M319.74,102.8h-4.3V77.6h4.3Z"/><path class="cls-1" d="M340.26,102.8l-4.5-20.17h-.18a32.15,32.15,0,0,1,.31,4.28V102.8h-4.08V79.12h6.77l4.05,18.61h.13l4-18.61h6.87V102.8h-4.18v-16a38,38,0,0,1,.23-4.08h-.13l-4.49,20.13Z"/><path class="cls-1" d="M357.41,80a2.28,2.28,0,0,1,.63-1.69,2.36,2.36,0,0,1,1.74-.62,2.3,2.3,0,0,1,1.68.62,2.28,2.28,0,0,1,.63,1.69,2.22,2.22,0,0,1-.64,1.71,2.34,2.34,0,0,1-1.67.61,2.4,2.4,0,0,1-1.72-.61A2.22,2.22,0,0,1,357.41,80Zm4.49,22.76h-4.31v-18h4.31Z"/><path class="cls-1" d="M374.58,102.8V92a7.32,7.32,0,0,0-.47-3,1.57,1.57,0,0,0-1.52-1,2.13,2.13,0,0,0-2,1.38,12,12,0,0,0-.65,4.67v8.67h-4.31v-18H369l.52,2.31h.27a4.62,4.62,0,0,1,1.67-1.95,4.57,4.57,0,0,1,2.54-.7,4.26,4.26,0,0,1,3.69,1.68A8.34,8.34,0,0,1,378.92,91V102.8Z"/><path class="cls-1" d="M382.26,80a2.27,2.27,0,0,1,.62-1.69,2.39,2.39,0,0,1,1.74-.62,2.33,2.33,0,0,1,1.69.62,2.28,2.28,0,0,1,.63,1.69,2.22,2.22,0,0,1-.65,1.71,2.32,2.32,0,0,1-1.67.61,2.37,2.37,0,0,1-1.71-.61A2.19,2.19,0,0,1,382.26,80Zm4.48,22.76h-4.3v-18h4.3Z"/><path class="cls-1" d="M400.12,97.52a5.41,5.41,0,0,1-1.55,4.12,6.33,6.33,0,0,1-4.55,1.48,8.5,8.5,0,0,1-4.43-1.05V98.33a8.47,8.47,0,0,0,2.09,1,6.58,6.58,0,0,0,2.09.4,2.15,2.15,0,0,0,1.53-.49,1.7,1.7,0,0,0,.53-1.3,2.08,2.08,0,0,0-.55-1.45,9.23,9.23,0,0,0-2-1.5,8.44,8.44,0,0,1-2.81-2.49,5.69,5.69,0,0,1-.85-3.12,4.55,4.55,0,0,1,1.58-3.64,6.48,6.48,0,0,1,4.34-1.34A8.68,8.68,0,0,1,400,85.68l-1.4,3.09a6.68,6.68,0,0,0-3.05-.94,1.64,1.64,0,0,0-1.24.44,1.52,1.52,0,0,0-.41,1.07,1.89,1.89,0,0,0,.51,1.3,9.13,9.13,0,0,0,1.9,1.4,12.26,12.26,0,0,1,2.37,1.74,5.14,5.14,0,0,1,1.05,1.62A5.5,5.5,0,0,1,400.12,97.52Z"/><path class="cls-1" d="M409.11,99.48a4.88,4.88,0,0,0,2-.46v3.37a5.55,5.55,0,0,1-3.16.73,4.22,4.22,0,0,1-3.48-1.4,6.54,6.54,0,0,1-1.14-4.2V88.17h-1.74V86.25l2.25-1.56,1.1-3.82h2.75v3.89h3.27v3.41h-3.27v9.49C407.65,98.87,408.14,99.48,409.11,99.48Z"/><path class="cls-1" d="M420.25,103.12a6.5,6.5,0,0,1-5.33-2.4,10.52,10.52,0,0,1-2-6.81,12,12,0,0,1,1.77-7,5.67,5.67,0,0,1,4.92-2.51,5.6,5.6,0,0,1,4.65,2.14,9.5,9.5,0,0,1,1.7,6v2.3h-8.66a5.94,5.94,0,0,0,1,3.59,3.15,3.15,0,0,0,2.6,1.17,8.4,8.4,0,0,0,4.3-1.31v3.54A9.38,9.38,0,0,1,420.25,103.12Zm-.63-15.38a1.74,1.74,0,0,0-1.52,1,6.61,6.61,0,0,0-.7,3h4.37a6.48,6.48,0,0,0-.6-3A1.71,1.71,0,0,0,419.62,87.74Z"/><path class="cls-1" d="M436.54,84.42a5.18,5.18,0,0,1,1.56.24l-.5,4.18a3.58,3.58,0,0,0-1.18-.16A2.76,2.76,0,0,0,434,89.91a6.44,6.44,0,0,0-.84,3.61v9.28h-4.31v-18h3.55l.48,2.81H433a6.43,6.43,0,0,1,1.55-2.42A2.91,2.91,0,0,1,436.54,84.42Z"/><path class="cls-1" d="M439.88,80a2.31,2.31,0,0,1,.62-1.69,2.4,2.4,0,0,1,1.75-.62,2.3,2.3,0,0,1,1.68.62,2.28,2.28,0,0,1,.63,1.69,2.22,2.22,0,0,1-.65,1.71,2.31,2.31,0,0,1-1.66.61,2.38,2.38,0,0,1-1.72-.61A2.22,2.22,0,0,1,439.88,80Zm4.49,22.76h-4.31v-18h4.31Z"/><path class="cls-1" d="M461.42,93.74a11.2,11.2,0,0,1-1.88,6.91,6.11,6.11,0,0,1-5.15,2.47,6.18,6.18,0,0,1-3.66-1.13,7.18,7.18,0,0,1-2.44-3.27,13,13,0,0,1-.86-5,11.15,11.15,0,0,1,1.86-6.85,6.09,6.09,0,0,1,5.17-2.47,6,6,0,0,1,5.07,2.51A11.1,11.1,0,0,1,461.42,93.74Zm-9.59,0a11.33,11.33,0,0,0,.62,4.26,2.06,2.06,0,0,0,2,1.45q2.59,0,2.6-5.71a10.83,10.83,0,0,0-.63-4.23,2.09,2.09,0,0,0-3.94,0A11.05,11.05,0,0,0,451.83,93.74Z"/><path class="cls-1" d="M485.81,86.41a8.13,8.13,0,0,1-1.9,5.79,7.21,7.21,0,0,1-5.5,2h-1.1v8.59H472.9V79.12h6Q485.81,79.12,485.81,86.41Zm-8.5,4h.84a3,3,0,0,0,2.41-.89,4.31,4.31,0,0,0,.8-2.91,4.36,4.36,0,0,0-.73-2.76,2.73,2.73,0,0,0-2.25-.9h-1.07Z"/><path class="cls-1" d="M498.28,102.8l-.53-2.32h-.23a4.67,4.67,0,0,1-1.71,1.94,4.61,4.61,0,0,1-2.53.7,4.33,4.33,0,0,1-3.68-1.65,8.15,8.15,0,0,1-1.25-4.94V84.76h4.36V95.49a7.36,7.36,0,0,0,.47,3,1.58,1.58,0,0,0,1.52,1,2.12,2.12,0,0,0,2-1.4,12.07,12.07,0,0,0,.64-4.68V84.76h4.36v18Zm-5.41-20.1v-.44a19.1,19.1,0,0,0,1.54-2.44c.58-1.06,1-1.87,1.25-2.43h5.15v.34A13.06,13.06,0,0,1,498.88,80c-1,1-2,1.94-3,2.73Z"/><path class="cls-1" d="M513.49,84.42a4.3,4.3,0,0,1,3.87,2.44,13.9,13.9,0,0,1,1.41,6.88,14,14,0,0,1-1.42,6.94,4.35,4.35,0,0,1-3.93,2.44,4.27,4.27,0,0,1-2.14-.52,5.29,5.29,0,0,1-1.76-1.86h-.27l-.73,2.06h-3.18V77.6h4.31v5.89c0,.25,0,.51,0,.78s-.08,1.22-.21,2.83h.23A5.47,5.47,0,0,1,511.37,85,3.79,3.79,0,0,1,513.49,84.42ZM512,88.08a1.85,1.85,0,0,0-1.78,1.15,10.73,10.73,0,0,0-.57,4v.44a12.22,12.22,0,0,0,.56,4.42A1.88,1.88,0,0,0,512,99.41q2.33,0,2.33-5.73C514.36,89.94,513.57,88.08,512,88.08Z"/><path class="cls-1" d="M526.1,102.8h-4.3V77.6h4.3Z"/><path class="cls-1" d="M529.57,80a2.31,2.31,0,0,1,.62-1.69,2.39,2.39,0,0,1,1.74-.62,2.31,2.31,0,0,1,1.69.62,2.28,2.28,0,0,1,.63,1.69,2.22,2.22,0,0,1-.65,1.71,2.32,2.32,0,0,1-1.67.61,2.37,2.37,0,0,1-1.71-.61A2.22,2.22,0,0,1,529.57,80Zm4.49,22.76h-4.31v-18h4.31Z"/><path class="cls-1" d="M543.71,103.12a5.65,5.65,0,0,1-4.91-2.35q-1.68-2.34-1.68-6.9,0-4.75,1.59-7.11a5.56,5.56,0,0,1,4.93-2.34,8,8,0,0,1,2.11.29,7,7,0,0,1,2,.84l-1.24,3.35a4.79,4.79,0,0,0-2.38-.79,2.07,2.07,0,0,0-2,1.43,11.49,11.49,0,0,0-.61,4.3,11.08,11.08,0,0,0,.6,4.19,2,2,0,0,0,2,1.38,6.27,6.27,0,0,0,3.39-1.13v3.79A7,7,0,0,1,543.71,103.12Z"/><path class="cls-1" d="M563.42,93.74a11.2,11.2,0,0,1-1.88,6.91,6.11,6.11,0,0,1-5.15,2.47,6.18,6.18,0,0,1-3.66-1.13,7.27,7.27,0,0,1-2.45-3.27,13.25,13.25,0,0,1-.85-5,11.15,11.15,0,0,1,1.86-6.85,6.09,6.09,0,0,1,5.17-2.47,6,6,0,0,1,5.07,2.51A11.1,11.1,0,0,1,563.42,93.74Zm-9.59,0a11.33,11.33,0,0,0,.62,4.26,2.06,2.06,0,0,0,2,1.45q2.6,0,2.59-5.71a10.86,10.86,0,0,0-.62-4.23,2.09,2.09,0,0,0-3.94,0A11.05,11.05,0,0,0,553.83,93.74Z"/><path class="cls-1" d="M81.39,50.2a29,29,0,1,0,16,53.26,5.42,5.42,0,0,1-.58.06,4.15,4.15,0,1,1,4.15-4.15,4.22,4.22,0,0,1-.32,1.59A29,29,0,0,0,81.39,50.2ZM75.47,88.11A13.62,13.62,0,1,1,89.09,74.49,13.62,13.62,0,0,1,75.47,88.11Z"/><circle class="cls-2" cx="81.93" cy="78.69" r="47.59"/><line class="cls-3" x1="117.76" y1="110" x2="136.11" y2="128.35"/></svg>